<svg xmlns="http://www.w3.org/2000/svg" xmlns:xlink="http://www.w3.org/1999/xlink" width="41.415" height="41.415" viewBox="0 0 41.415 41.415">
  <defs>
    <radialGradient id="radial-gradient" cx="0.5" cy="0.5" r="0.886" gradientUnits="objectBoundingBox">
      <stop offset="0" stop-color="#e49f00"/>
      <stop offset="0.326" stop-color="#e19d00"/>
      <stop offset="1" stop-color="#9f730b"/>
    </radialGradient>
  </defs>
  <path id="fan" d="M24.707,4A20.707,20.707,0,1,0,45.415,24.707,20.731,20.731,0,0,0,24.707,4Zm0,3.106a17.6,17.6,0,1,1-17.6,17.6A17.578,17.578,0,0,1,24.707,7.106Zm-.069,2.93a3.514,3.514,0,0,0-3.511,3.513,3.451,3.451,0,0,0,.077.736l1.5,6.989a2.907,2.907,0,0,1-1.951,3.381l-6.8,2.2a3.51,3.51,0,1,0,2.833,6.38,3.591,3.591,0,0,0,.6-.435L22.687,28a2.91,2.91,0,0,1,3.9,0l5.3,4.795a3.515,3.515,0,0,0,5.4-.849A3.516,3.516,0,0,0,36,27.15a3.423,3.423,0,0,0-.675-.3l-6.8-2.2a2.911,2.911,0,0,1-1.953-3.381l1.5-6.989a3.509,3.509,0,0,0-3.432-4.249Zm.069,13.118a1.553,1.553,0,1,1-1.553,1.553A1.554,1.554,0,0,1,24.707,23.154Z" transform="translate(-4 -4)" fill="url(#radial-gradient)"/>
</svg>
