<svg xmlns="http://www.w3.org/2000/svg" xmlns:xlink="http://www.w3.org/1999/xlink" width="35.622" height="38.919" viewBox="0 0 35.622 38.919">
  <defs>
    <radialGradient id="radial-gradient" cx="0.5" cy="0.836" r="2.714" gradientUnits="objectBoundingBox">
      <stop offset="0" stop-color="#e49f00"/>
      <stop offset="1" stop-color="#9f730b"/>
    </radialGradient>
  </defs>
  <g id="Group_86" data-name="Group 86" transform="translate(0 -0.001)">
    <g id="Path_79" data-name="Path 79" transform="translate(8.589 22.042)" fill="url(#radial-gradient)">
      <path d="M 7.58792781829834 -0.400801032781601 C 4.231027603149414 -0.400801032781601 1.499997854232788 -3.131870985031128 1.499997854232788 -6.488821029663086 C 1.499997854232788 -7.157950878143311 1.850837826728821 -9.336481094360352 5.100557804107666 -15.09969139099121 C 5.995708465576172 -16.68719673156738 6.895710945129395 -18.16360855102539 7.587860107421875 -19.26709938049316 C 8.282755851745605 -18.15921974182129 9.186882019042969 -16.67602157592773 10.0840482711792 -15.08417129516602 C 13.32586765289307 -9.332151412963867 13.67585754394531 -7.157011032104492 13.67585754394531 -6.488821029663086 C 13.67585754394531 -3.131870985031128 10.94482803344727 -0.400801032781601 7.58792781829834 -0.400801032781601 Z" stroke="none"/>
      <path d="M 7.587855339050293 -16.3950309753418 C 7.206420421600342 -15.75627899169922 6.806357383728027 -15.0709056854248 6.407157897949219 -14.36294078826904 C 3.095607757568359 -8.490071296691895 2.999998092651367 -6.676301002502441 2.999998092651367 -6.488821029663086 C 2.999998092651367 -3.958980560302734 5.058137893676758 -1.900810241699219 7.58792781829834 -1.900810241699219 C 10.11771774291992 -1.900810241699219 12.17585754394531 -3.958980560302734 12.17585754394531 -6.488821029663086 C 12.17585754394531 -6.675701141357422 12.08073806762695 -8.483461380004883 8.785967826843262 -14.33230113983154 C 8.381462097167969 -15.05037879943848 7.975204944610596 -15.74647808074951 7.587855339050293 -16.3950309753418 M 7.58792781829834 -22.0410213470459 C 7.58792781829834 -22.0410213470459 15.17585754394531 -10.6795711517334 15.17585754394531 -6.488821029663086 C 15.17585754394531 -2.298080444335938 11.77862739562988 1.099189758300781 7.58792781829834 1.099189758300781 C 3.397228240966797 1.099189758300781 -1.9073486328125e-06 -2.298080444335938 -1.9073486328125e-06 -6.488821029663086 C -1.9073486328125e-06 -10.6795711517334 7.58792781829834 -22.0410213470459 7.58792781829834 -22.0410213470459 Z" stroke="none" fill="#ffbb1c"/>
    </g>
    <g id="Path_80" data-name="Path 80" transform="translate(20.447 37.821)" fill="url(#radial-gradient)">
      <path d="M 7.58792781829834 -0.400801032781601 C 4.231027603149414 -0.400801032781601 1.499997854232788 -3.131870985031128 1.499997854232788 -6.488821029663086 C 1.499997854232788 -7.157950878143311 1.850837826728821 -9.336481094360352 5.100557804107666 -15.09969139099121 C 5.995708465576172 -16.68719673156738 6.895710945129395 -18.16360855102539 7.587860107421875 -19.26709938049316 C 8.282755851745605 -18.15921974182129 9.186882019042969 -16.67602157592773 10.0840482711792 -15.08417129516602 C 13.32586765289307 -9.332151412963867 13.67585754394531 -7.157011032104492 13.67585754394531 -6.488821029663086 C 13.67585754394531 -3.131870985031128 10.94482803344727 -0.400801032781601 7.58792781829834 -0.400801032781601 Z" stroke="none"/>
      <path d="M 7.587855339050293 -16.3950309753418 C 7.206420421600342 -15.75627899169922 6.806357383728027 -15.0709056854248 6.407157897949219 -14.36294078826904 C 3.095607757568359 -8.490071296691895 2.999998092651367 -6.676301002502441 2.999998092651367 -6.488821029663086 C 2.999998092651367 -3.958980560302734 5.058137893676758 -1.900810241699219 7.58792781829834 -1.900810241699219 C 10.11771774291992 -1.900810241699219 12.17585754394531 -3.958980560302734 12.17585754394531 -6.488821029663086 C 12.17585754394531 -6.675701141357422 12.08073806762695 -8.483461380004883 8.785967826843262 -14.33230113983154 C 8.381462097167969 -15.05037879943848 7.975204944610596 -15.74647808074951 7.587855339050293 -16.3950309753418 M 7.58792781829834 -22.0410213470459 C 7.58792781829834 -22.0410213470459 15.17585754394531 -10.6795711517334 15.17585754394531 -6.488821029663086 C 15.17585754394531 -2.298080444335938 11.77862739562988 1.099189758300781 7.58792781829834 1.099189758300781 C 3.397228240966797 1.099189758300781 -1.9073486328125e-06 -2.298080444335938 -1.9073486328125e-06 -6.488821029663086 C -1.9073486328125e-06 -10.6795711517334 7.58792781829834 -22.0410213470459 7.58792781829834 -22.0410213470459 Z" stroke="none" fill="#ffbb1c"/>
    </g>
    <g id="Path_81" data-name="Path 81" transform="translate(0 39.597)" fill="url(#radial-gradient)">
      <path d="M 5.28227710723877 -7.432136058807373 C 3.196717023849487 -7.432136058807373 1.499997138977051 -9.128886222839355 1.499997138977051 -11.21447563171387 C 1.499997138977051 -11.54912567138672 1.675887107849121 -12.95316600799561 3.939027070999146 -16.96956634521484 C 4.405002117156982 -17.7965259552002 4.873939990997314 -18.58145523071289 5.28227710723877 -19.24586868286133 C 5.690610408782959 -18.58146095275879 6.159552097320557 -17.7965259552002 6.625526905059814 -16.96956634521484 C 8.888667106628418 -12.95316600799561 9.064557075500488 -11.54912567138672 9.064557075500488 -11.21447563171387 C 9.064557075500488 -9.128886222839355 7.367836952209473 -7.432136058807373 5.28227710723877 -7.432136058807373 Z" stroke="none"/>
      <path d="M 5.28227710723877 -16.29776000976562 C 3.15066385269165 -12.52619171142578 3.008488178253174 -11.30516815185547 3.000032901763916 -11.20172691345215 C 3.006875038146973 -9.949039459228516 4.028051853179932 -8.932136535644531 5.28227710723877 -8.932136535644531 C 6.536502361297607 -8.932136535644531 7.557679176330566 -9.949039459228516 7.564521312713623 -11.20172691345215 C 7.556066036224365 -11.30516815185547 7.413890361785889 -12.52619171142578 5.28227710723877 -16.29776000976562 M 5.28227710723877 -22.041015625 C 5.28227710723877 -22.041015625 10.56455707550049 -14.1318359375 10.56455707550049 -11.21447563171387 C 10.56455707550049 -8.297126770019531 8.199597358703613 -5.932136535644531 5.28227710723877 -5.932136535644531 C 2.364956855773926 -5.932136535644531 -2.86102294921875e-06 -8.297126770019531 -2.86102294921875e-06 -11.21447563171387 C -2.86102294921875e-06 -14.1318359375 5.28227710723877 -22.041015625 5.28227710723877 -22.041015625 Z" stroke="none" fill="#ffbb1c"/>
    </g>
  </g>
</svg>
