<svg xmlns="http://www.w3.org/2000/svg" xmlns:xlink="http://www.w3.org/1999/xlink" width="46.687" height="32.893" viewBox="0 0 46.687 32.893">
  <defs>
    <radialGradient id="radial-gradient" cx="0.5" cy="0.5" r="1.156" gradientUnits="objectBoundingBox">
      <stop offset="0" stop-color="#e49f00"/>
      <stop offset="1" stop-color="#9f730b"/>
    </radialGradient>
  </defs>
  <path id="motor" d="M43.137,48.71H19.1l-1.22,3.183H47.169l-1.22-3.183ZM22.446,45.526h20.16v2.122H22.446ZM11.305,28.55V40.221a2.128,2.128,0,0,0,2.122,2.122V26.427A2.128,2.128,0,0,0,11.305,28.55Zm15.916-7.427H37.832v2.122H27.221ZM16.611,45V23.244a2.128,2.128,0,0,0-2.122,2.122V43.4a2.128,2.128,0,0,0,2.122,2.122Zm10.08-20.691H17.672v20.16h29.71V24.305ZM43.668,42.343H21.385a1.592,1.592,0,0,1,0-3.183H43.668a1.592,1.592,0,0,1,0,3.183Zm0-6.366H21.385a1.592,1.592,0,1,1,0-3.183H43.668a1.592,1.592,0,0,1,0,3.183Zm1.592-7.958a1.563,1.563,0,0,1-1.592,1.592H21.385a1.592,1.592,0,1,1,0-3.183H43.668A1.563,1.563,0,0,1,45.259,28.019Zm5.305-4.775H48.442V45.526h2.122A2.128,2.128,0,0,0,52.687,43.4V25.366A2.128,2.128,0,0,0,50.564,23.244ZM38.1,20.061l.8-1.061H26.16l.8,1.061ZM6,32.794h4.244v3.183H6Z" transform="translate(-6 -19)" fill="url(#radial-gradient)"/>
</svg>
