<svg xmlns="http://www.w3.org/2000/svg" xmlns:xlink="http://www.w3.org/1999/xlink" width="41.415" height="36.002" viewBox="0 0 41.415 36.002">
  <defs>
    <radialGradient id="radial-gradient" cx="0.5" cy="0.5" r="0.827" gradientUnits="objectBoundingBox">
      <stop offset="0" stop-color="#ffbb1c"/>
      <stop offset="1" stop-color="#9f730b"/>
    </radialGradient>
  </defs>
  <g id="row1" transform="translate(0 0)">
    <path id="icon:3" d="M73.779,54.5l-.786-1.369H69.386l1.272-2.263L69.9,49.542H68.371l-2.023,3.589H64.938l1.081-1.92-.763-1.326H63.731l-.924,1.638-2.3-4,1.873.012.763-1.326-.763-1.32-2.2-.024.7-1.225L65,43.678l.763-1.326L65,41.025l-2.593-.018,1.807-3.145L63.425,36.5H61.853l-1.807,3.139-1.314-2.244H57.208l-.763,1.326,2.083,3.554-.7,1.231-1.117-1.9H55.184l-.763,1.326.954,1.621h-4.6l.948-1.621L50.959,41.6H49.434l-1.117,1.9-.7-1.231L49.7,38.721l-.763-1.326H47.411L46.1,39.639,44.29,36.5H42.718l-.786,1.362,1.807,3.145-2.593.018-.763,1.327.763,1.326,4.111-.036.7,1.225-2.2.024L43,46.212l.763,1.326,1.873-.012-2.3,4-.924-1.638H40.888l-.763,1.326,1.081,1.92H39.8l-2.023-3.589H36.248l-.763,1.327,1.278,2.263H33.151L32.364,54.5l.786,1.369h3.613l-1.278,2.263.763,1.327h1.524l2.023-3.59h1.411l-1.081,1.92.763,1.327h1.524l.924-1.638,2.3,4-1.873-.012L43,62.79l.763,1.32,2.2.024-.7,1.225-4.111-.036-.763,1.327.763,1.327,2.593.018L41.931,71.14l.786,1.363h1.572L46.1,69.363l1.314,2.244h1.524l.763-1.327-2.083-3.553.7-1.231,1.117,1.9h1.524l.763-1.327-.948-1.621h4.6l-.954,1.621.763,1.327h1.524l1.117-1.9.7,1.231-2.083,3.553.763,1.327h1.524l1.314-2.244L61.852,72.5h1.572l.786-1.363L62.4,67.994,65,67.97l.763-1.32L65,65.323l-4.105.036-.708-1.225,2.2-.024.763-1.327-.763-1.32-1.873.012,2.3-4,.924,1.638h1.524l.763-1.327-1.081-1.92h1.411l2.023,3.59h1.524l.763-1.327-1.272-2.263h3.607ZM57.365,58.287H55.256l-1.051,1.822a1.309,1.309,0,0,1-2.268,0l-1.051-1.822h-2.11a1.309,1.309,0,0,1-1.134-1.963L48.7,54.5l-1.053-1.824a1.309,1.309,0,0,1,1.134-1.963h2.109l1.051-1.822a1.309,1.309,0,0,1,2.268,0l1.051,1.822h2.109A1.309,1.309,0,0,1,58.5,52.676L57.447,54.5,58.5,56.324A1.309,1.309,0,0,1,57.365,58.287Z" transform="translate(-32.364 -36.5)" fill-rule="evenodd" fill="url(#radial-gradient)"/>
  </g>
</svg>
