<svg xmlns="http://www.w3.org/2000/svg" width="36.295" height="31.11" viewBox="0 0 36.295 31.11">
  <g id="Oven_Stove_dome" data-name="Oven/Stove/dome" transform="translate(-2 -7)">
    <path id="Path_111" data-name="Path 111" d="M37.863,7H2.432A.432.432,0,0,0,2,7.432V37.678a.432.432,0,0,0,.432.432H37.863a.432.432,0,0,0,.432-.432V7.432A.432.432,0,0,0,37.863,7Zm-35,.864H37.431v5.185H2.864Zm0,6.049H5.457V37.246H2.864ZM6.321,37.246V13.913H33.975V37.246Zm31.11,0H34.839V13.913h2.593ZM10.642,12.185a1.728,1.728,0,1,0-1.728-1.728,1.728,1.728,0,0,0,1.728,1.728Zm-.864-1.728a.863.863,0,0,1,.032-.221l1.048,1.048a.854.854,0,0,1-1.08-.827Zm1.728,0a.863.863,0,0,1-.032.221L10.421,9.625a.853.853,0,0,1,1.085.832Zm-3.457,0a1.728,1.728,0,1,0-1.728,1.728A1.728,1.728,0,0,0,8.049,10.457Zm-.864,0a.863.863,0,0,1-.032.221L6.1,9.625a.853.853,0,0,1,1.085.832Zm-1.728,0a.863.863,0,0,1,.032-.221l1.048,1.048a.854.854,0,0,1-1.08-.827Zm24.2,1.728a1.728,1.728,0,1,0-1.728-1.728A1.728,1.728,0,0,0,29.654,12.185Zm-.864-1.728a.863.863,0,0,1,.032-.221l1.048,1.048a.854.854,0,0,1-1.08-.827Zm1.728,0a.863.863,0,0,1-.032.221L29.433,9.625a.853.853,0,0,1,1.085.832Zm3.457,1.728a1.728,1.728,0,1,0-1.728-1.728A1.728,1.728,0,0,0,33.975,12.185Zm-.864-1.728a.863.863,0,0,1,.032-.221l1.048,1.048a.854.854,0,0,1-1.08-.827Zm1.728,0a.863.863,0,0,1-.032.221L33.753,9.625a.853.853,0,0,1,1.085.832ZM10.21,16.938V15.21a.432.432,0,1,1,.864,0v.433H29.222V15.21a.432.432,0,1,1,.864,0v1.728a.432.432,0,0,1-.864,0v-.431H11.074v.431a.432.432,0,0,1-.864,0Zm4.753,13.395h10.37a2.163,2.163,0,0,0,2.16-2.16.432.432,0,0,0-.432-.432H25.333A5.188,5.188,0,0,0,22.3,23.03c0-.016,0-.028,0-.043a2.16,2.16,0,0,0-4.321,0c0,.016,0,.028,0,.043a5.188,5.188,0,0,0-3.029,4.71H13.234a.432.432,0,0,0-.432.432A2.163,2.163,0,0,0,14.963,30.333Zm3.918-7.62a1.3,1.3,0,0,1,2.534,0c-.026-.007-.053-.009-.08-.015-.14-.033-.282-.059-.425-.08-.056-.009-.112-.019-.169-.026a4.824,4.824,0,0,0-1.186,0c-.057.006-.112.017-.169.026-.144.021-.286.047-.425.08-.026.006-.054.008-.08.015Zm-.184.963c.081-.029.163-.057.245-.082.05-.014.1-.026.15-.039.082-.021.164-.042.247-.057.05-.01.1-.015.152-.023.085-.013.17-.027.256-.035.047,0,.094,0,.141-.007a4.346,4.346,0,0,1,.52,0c.047,0,.095,0,.141.007.086.008.171.022.256.035.051.008.1.014.152.023.083.016.165.037.247.057.05.013.1.024.15.039.083.024.164.052.246.082a4.324,4.324,0,0,1,2.869,4.065H15.827a4.324,4.324,0,0,1,2.87-4.065Zm-3.3,4.929h11.16a1.3,1.3,0,0,1-1.222.864H14.963A1.3,1.3,0,0,1,13.74,28.6Z" transform="translate(0 0)" fill="#013a67"/>
    <g id="Rectangle_511" data-name="Rectangle 511" transform="translate(7.867 18.462)" fill="none" stroke="#ffbb1c" stroke-width="1">
      <rect width="24.561" height="14.736" rx="2" stroke="none"/>
      <rect x="0.5" y="0.5" width="23.561" height="13.736" rx="1.5" fill="none"/>
    </g>
    <line id="Line_194" data-name="Line 194" x2="9.006" transform="translate(15.645 35.245)" fill="none" stroke="#ffbb1c" stroke-linecap="round" stroke-width="1"/>
    <g id="Rectangle_512" data-name="Rectangle 512" transform="translate(13.598 8.637)" fill="none" stroke="#ffbb1c" stroke-width="1">
      <rect width="13.099" height="3.275" rx="1" stroke="none"/>
      <rect x="0.5" y="0.5" width="12.099" height="2.275" rx="0.5" fill="none"/>
    </g>
  </g>
</svg>
