<svg xmlns="http://www.w3.org/2000/svg" width="30.095" height="30.98" viewBox="0 0 30.095 30.98">
  <path id="temperature-inside" d="M18.337,3.969,17.7,4.4,3.969,13.371,5.2,15.391V33.846H31.474V15.391l1.232-2.02L18.972,4.4Zm0,2.953,10.748,7.032V31.359H7.589V13.954Zm-1.194,4.546V24.249a2.5,2.5,0,0,0-1.194,2.137,2.39,2.39,0,1,0,4.777,0,2.5,2.5,0,0,0-1.194-2.137V22.656H21.92V20.17H19.532V18.927H21.92V16.44H19.532V15.2H21.92V12.71H19.532V11.467Z" transform="translate(-3.29 -3.366)" fill="#ffbb1c" stroke="#013a67" stroke-width="1"/>
</svg>
