<svg xmlns="http://www.w3.org/2000/svg" width="28.168" height="30.096" viewBox="0 0 28.168 30.096">
  <g id="Group_306" data-name="Group 306" transform="translate(-1201 -203.999)">
    <path id="light_4_" d="M4.1,16.059v.564c0,7.43,6.3,13.473,14.084,13.473,7.759,0,14.084-6.043,14.084-13.473v-.564H4.1ZM18.184,28.944A12.676,12.676,0,0,1,5.3,17.211H31.045A12.638,12.638,0,0,1,18.184,28.944ZM19.853,0V3.174H18.8V9.146H17.478V3.174H16.42V0Z" transform="translate(1196.9 203.999)" fill="#ffbb1c"/>
    <g id="Union_3" data-name="Union 3" transform="translate(1210.203 214.169)" fill="#013a67">
      <path d="M 9.203633308410645 4.377924919128418 L 0.554966151714325 4.377924919128418 C 0.8241571187973022 3.18314528465271 2.041616916656494 2.17486047744751 3.698644638061523 1.836574792861938 L 4.098634719848633 1.754914879798889 L 4.098634719848633 1.346674799919128 L 4.098634719848633 0.5000048279762268 L 6.026364326477051 0.5000048279762268 L 6.026364326477051 1.431644797325134 L 6.026364326477051 1.814854860305786 L 6.396394729614258 1.914454817771912 C 7.888185977935791 2.316027164459229 8.953635215759277 3.271474838256836 9.203633308410645 4.377924919128418 Z" stroke="none"/>
      <path d="M 8.466370582580566 3.877924919128418 C 8.06525993347168 3.216415643692017 7.2785325050354 2.669718742370605 6.266434669494629 2.397274732589722 L 5.526364326477051 2.198054790496826 L 5.526364326477051 1.000004887580872 L 4.598634719848633 1.000004887580872 L 4.598634719848633 2.163144826889038 L 3.798664569854736 2.326464891433716 C 2.643966436386108 2.562197208404541 1.733192563056946 3.147681951522827 1.291229963302612 3.877924919128418 L 8.466370582580566 3.877924919128418 M 9.759764671325684 4.877924919128418 L -0.0009754687780514359 4.877924919128418 C -0.0009754687780514359 3.191404819488525 1.527344584465027 1.769534826278687 3.598634481430054 1.346674799919128 L 3.598634481430054 4.843750048166839e-06 L 6.526364326477051 4.843750048166839e-06 L 6.526364326477051 1.431644797325134 C 8.409184455871582 1.938474893569946 9.759764671325684 3.291014909744263 9.759764671325684 4.877924919128418 Z" stroke="none" fill="#013a67"/>
    </g>
  </g>
</svg>
