<svg xmlns="http://www.w3.org/2000/svg" width="30.969" height="30.969" viewBox="0 0 30.969 30.969">
  <g id="future" transform="translate(-1 -1)">
    <path id="Path_97" data-name="Path 97" d="M16.577,31.654A15.077,15.077,0,1,1,31.654,16.577,15.094,15.094,0,0,1,16.577,31.654Zm0-27.709A12.632,12.632,0,1,0,29.209,16.577,12.646,12.646,0,0,0,16.577,3.945Z" transform="translate(-0.093 -0.093)" fill="#dcdcdc"/>
    <path id="Path_98" data-name="Path 98" d="M16.484,1.815A14.669,14.669,0,1,1,1.815,16.484,14.686,14.686,0,0,1,16.484,1.815m0,27.709A13.039,13.039,0,1,0,3.445,16.484,13.055,13.055,0,0,0,16.484,29.524M16.484,1A15.484,15.484,0,1,0,31.969,16.484,15.485,15.485,0,0,0,16.484,1Zm0,27.709A12.225,12.225,0,1,1,28.709,16.484,12.225,12.225,0,0,1,16.484,28.709Z" fill="#dcdcdc"/>
    <path id="Path_99" data-name="Path 99" d="M32.149,13.15a15.386,15.386,0,0,0-1.776-4.075H26.318a12.283,12.283,0,1,0,2.42,4.075Z" transform="translate(-0.74 -0.74)" fill="#fff"/>
    <path id="Path_100" data-name="Path 100" d="M13,10l5.7,8.15-4.89,4.89" transform="translate(-2.22 -1.665)" fill="none" stroke="#dcdcdc" stroke-linecap="round" stroke-width="2"/>
    <path id="Path_101" data-name="Path 101" d="M19.722,18.5a1.222,1.222,0,1,0,1.222,1.222A1.222,1.222,0,0,0,19.722,18.5Z" transform="translate(-3.238 -3.238)" fill="#dcdcdc"/>
    <path id="Path_102" data-name="Path 102" d="M17.41,5.668a.815.815,0,1,0,.815.815A.815.815,0,0,0,17.41,5.668Zm0,21.189a.815.815,0,1,0,.815.815A.815.815,0,0,0,17.41,26.857ZM6.815,16.263a.815.815,0,1,0,.815.815A.815.815,0,0,0,6.815,16.263Zm21.189,0a.815.815,0,1,0,.815.815A.815.815,0,0,0,28,16.263Zm-3.906-5.3,6.759-6.759v6.759Z" transform="translate(-0.925 -0.593)" fill="#dcdcdc"/>
    <path id="Path_103" data-name="Path 103" d="M34.335,4.967v5.367H28.967l5.367-5.367M35.15,3,27,11.15h8.15V3Z" transform="translate(-4.811 -0.37)" fill="#dcdcdc"/>
    <path id="Path_104" data-name="Path 104" d="M30.5,6.626a13.913,13.913,0,0,1,2.137,2.087" transform="translate(-5.458 -1.041)" fill="none" stroke="#dcdcdc" stroke-width="2"/>
  </g>
</svg>
