<svg xmlns="http://www.w3.org/2000/svg" width="30.315" height="31.096" viewBox="0 0 30.315 31.096">
  <path id="air-shaft" d="M20.618,4.979A1.253,1.253,0,0,0,20.44,5H11.283A5.236,5.236,0,0,0,6,10.141v1.388a1.156,1.156,0,0,0,0,.385V17.07a1.156,1.156,0,0,0,0,.385v1.393a5.236,5.236,0,0,0,5.287,5.145h9.154a1.253,1.253,0,0,0,.4,0h9.159a5.236,5.236,0,0,0,5.287-5.145V17.459a1.156,1.156,0,0,0,0-.385V11.918a1.156,1.156,0,0,0,0-.385V10.141A5.236,5.236,0,0,0,29.992,5H20.838a1.253,1.253,0,0,0-.219-.017ZM11.283,7.37h8.134v3.166H8.436v-.4A2.792,2.792,0,0,1,11.283,7.37Zm10.574,0h8.134a2.792,2.792,0,0,1,2.847,2.77v.4H21.858ZM8.436,12.911H19.417v3.166H8.436Zm13.421,0H32.838v3.166H21.858ZM8.436,18.452H19.417v3.166H11.283a2.792,2.792,0,0,1-2.847-2.77Zm13.421,0H32.838v.4a2.792,2.792,0,0,1-2.847,2.77H21.858Zm-7.338,7.124a1.237,1.237,0,0,0-.845.348L10.421,29.09a1.167,1.167,0,0,0-.338,1.157,1.2,1.2,0,0,0,.874.85,1.243,1.243,0,0,0,1.189-.329l1.171-1.139V32.3a.383.383,0,0,1-.407.4H7.216a1.188,1.188,0,1,0,0,2.375H12.91a2.828,2.828,0,0,0,2.847-2.77V29.629l1.171,1.139a1.243,1.243,0,0,0,1.189.329,1.2,1.2,0,0,0,.874-.85,1.167,1.167,0,0,0-.338-1.157L15.4,25.923a1.238,1.238,0,0,0-.88-.348Zm12.2,0a1.237,1.237,0,0,0-.845.348L22.622,29.09a1.167,1.167,0,0,0-.338,1.157,1.2,1.2,0,0,0,.874.85,1.243,1.243,0,0,0,1.189-.329l1.171-1.139V32.3a2.828,2.828,0,0,0,2.847,2.77h5.694a1.188,1.188,0,1,0,0-2.375H28.365a.383.383,0,0,1-.407-.4V29.629l1.171,1.139a1.243,1.243,0,0,0,1.189.329,1.2,1.2,0,0,0,.874-.85,1.167,1.167,0,0,0-.338-1.157L27.6,25.923a1.238,1.238,0,0,0-.88-.348Z" transform="translate(-5.48 -4.478)" fill="#ffbb1c" stroke="#013a67" stroke-width="1"/>
</svg>
