<svg xmlns="http://www.w3.org/2000/svg" width="33.288" height="32.843" viewBox="0 0 33.288 32.843">
  <g id="Group_543" data-name="Group 543" transform="translate(-7261.233 12247)">
    <path id="temperature-inside" d="M19.542,13.255v7.893a1.54,1.54,0,0,0-.737,1.319,1.476,1.476,0,1,0,2.95,0,1.54,1.54,0,0,0-.737-1.319V19.025h1.475v-.908H21.017v-.908h1.475v-.883H21.017v-.962h1.475v-.82H21.017V13.255Z" transform="translate(7264.375 -12241.866)" fill="#ffbb1c"/>
    <g id="recycling-water-greywater-shower" transform="translate(7262.233 -12246)">
      <circle id="Ellipse_22" data-name="Ellipse 22" cx="8.791" cy="8.791" r="8.791" transform="translate(13.707 13.262)" fill="none" stroke="#013a67" stroke-linecap="round" stroke-linejoin="round" stroke-width="2"/>
      <path id="Path_109" data-name="Path 109" d="M21.042,25.576h0a5.826,5.826,0,1,0-11.652,0v1.6H21.042Z" transform="translate(-9.39 -12.218)" fill="none" stroke="#013a67" stroke-linecap="round" stroke-linejoin="round" stroke-width="2"/>
      <path id="Path_110" data-name="Path 110" d="M19,13.575v-.707C19.7,8.062,22.732,6,27.336,6a8.336,8.336,0,0,1,8.336,8.336v4.12" transform="translate(-13.174 -6)" fill="none" stroke="#013a67" stroke-linecap="round" stroke-linejoin="round" stroke-width="2"/>
      <line id="Line_158" data-name="Line 158" y2="2.292" transform="translate(5.826 17.28)" fill="none" stroke="#ffbb1c" stroke-linecap="round" stroke-linejoin="round" stroke-width="2"/>
      <line id="Line_160" data-name="Line 160" y2="2.292" transform="translate(1.194 22.079)" fill="none" stroke="#ffbb1c" stroke-linecap="round" stroke-linejoin="round" stroke-width="2"/>
      <line id="Line_161" data-name="Line 161" y2="2.292" transform="translate(5.826 22.079)" fill="none" stroke="#ffbb1c" stroke-linecap="round" stroke-linejoin="round" stroke-width="2"/>
      <line id="Line_162" data-name="Line 162" y2="2.292" transform="translate(10.452 22.079)" fill="none" stroke="#ffbb1c" stroke-linecap="round" stroke-linejoin="round" stroke-width="2"/>
      <line id="Line_163" data-name="Line 163" y2="2.292" transform="translate(1.194 26.732)" fill="none" stroke="#ffbb1c" stroke-linecap="round" stroke-linejoin="round" stroke-width="2"/>
      <line id="Line_164" data-name="Line 164" y2="2.292" transform="translate(5.826 26.732)" fill="none" stroke="#ffbb1c" stroke-linecap="round" stroke-linejoin="round" stroke-width="2"/>
      <line id="Line_165" data-name="Line 165" y2="2.292" transform="translate(10.452 26.732)" fill="none" stroke="#ffbb1c" stroke-linecap="round" stroke-linejoin="round" stroke-width="2"/>
    </g>
  </g>
</svg>
