<svg xmlns="http://www.w3.org/2000/svg" width="12.428" height="12.428" viewBox="0 0 12.428 12.428">
  <path id="_8674983_ic_fluent_eye_hide_regular_icon" data-name="8674983_ic_fluent_eye_hide_regular_icon" d="M2.137,2.137a.466.466,0,0,0-.045.607l.045.052L4.644,5.3A6.205,6.205,0,0,0,2.186,8.875a.466.466,0,1,0,.9.226A5.275,5.275,0,0,1,5.315,5.973L6.439,7.1a2.486,2.486,0,0,0,3.515,3.515l3.678,3.678a.466.466,0,0,0,.7-.607l-.045-.052-3.8-3.8h0l-.746-.744L7.964,7.3h0L6.175,5.516h0l-.7-.7L2.8,2.137A.466.466,0,0,0,2.137,2.137ZM7.1,7.757l2.2,2.2a1.553,1.553,0,0,1-2.2-2.2ZM8.214,4.175a6.209,6.209,0,0,0-1.8.264l.769.768a5.286,5.286,0,0,1,6.151,3.9.466.466,0,0,0,.9-.226A6.216,6.216,0,0,0,8.214,4.175Zm.121,2.181L10.7,8.717A2.487,2.487,0,0,0,8.335,6.355Z" transform="translate(-2 -2)" fill="#212121"/>
</svg>
