<svg xmlns="http://www.w3.org/2000/svg" width="12.58" height="7.442" viewBox="0 0 12.58 7.442">
  <path id="_8674868_ic_fluent_eye_show_regular_icon" data-name="8674868_ic_fluent_eye_show_regular_icon" d="M8.566,7.767a2.587,2.587,0,1,1-2.587,2.587A2.587,2.587,0,0,1,8.566,7.767Zm0,.97a1.617,1.617,0,1,0,1.617,1.617A1.617,1.617,0,0,0,8.566,8.737Zm0-3.237a6.471,6.471,0,0,1,6.275,4.893.485.485,0,1,1-.941.236,5.5,5.5,0,0,0-10.669,0A.485.485,0,0,1,2.29,10.4,6.471,6.471,0,0,1,8.566,5.5Z" transform="translate(-2.275 -5.5)" fill="#212121"/>
</svg>
