<svg xmlns="http://www.w3.org/2000/svg" width="9.679" height="9.679" viewBox="0 0 9.679 9.679">
  <path id="clone" d="M8.987,8.814V2.938a.175.175,0,0,0-.173-.173H2.938a.175.175,0,0,0-.173.173V8.814a.175.175,0,0,0,.173.173H8.814a.175.175,0,0,0,.173-.173Zm.691-5.876V8.814a.867.867,0,0,1-.864.864H2.938a.867.867,0,0,1-.864-.864V2.938a.867.867,0,0,1,.864-.864H8.814a.867.867,0,0,1,.864.864ZM7.6.864v.864H6.913V.864A.175.175,0,0,0,6.74.691H.864A.175.175,0,0,0,.691.864V6.74a.175.175,0,0,0,.173.173h.864V7.6H.864a.832.832,0,0,1-.61-.254A.832.832,0,0,1,0,6.74V.864A.832.832,0,0,1,.254.254.832.832,0,0,1,.864,0H6.74a.832.832,0,0,1,.61.254A.832.832,0,0,1,7.6.864Z"/>
</svg>
