<svg xmlns="http://www.w3.org/2000/svg" width="13.035" height="16.998" viewBox="0 0 13.035 16.998">
  <path id="delete" d="M18.607,9.393l-.274,8.286A2.729,2.729,0,0,1,15.6,20.32h-5.2a2.729,2.729,0,0,1-2.738-2.637L7.383,9.393a.685.685,0,0,1,1.369-.045l.274,8.288a1.369,1.369,0,0,0,1.369,1.316h5.2a1.369,1.369,0,0,0,1.369-1.319l.274-8.286a.685.685,0,1,1,1.369.045Zm.905-2.758a.684.684,0,0,1-.684.684H7.162a.684.684,0,1,1,0-1.369H9.284a.873.873,0,0,0,.871-.786A2.047,2.047,0,0,1,12.2,3.322h1.595a2.047,2.047,0,0,1,2.042,1.844.873.873,0,0,0,.871.786h2.122a.684.684,0,0,1,.684.684Zm-8.169-.684h3.3a2.259,2.259,0,0,1-.175-.646.684.684,0,0,0-.68-.616H12.2a.684.684,0,0,0-.68.616,2.259,2.259,0,0,1-.175.646Zm.689,10.37V10.493a.684.684,0,1,0-1.369,0v5.831a.684.684,0,1,0,1.369,0Zm3.295,0V10.493a.684.684,0,1,0-1.369,0v5.831a.684.684,0,1,0,1.369,0Z" transform="translate(-6.478 -3.322)" fill="#1c1c1c"/>
</svg>
