<svg id="edit" xmlns="http://www.w3.org/2000/svg" width="12.634" height="12.634" viewBox="0 0 12.634 12.634">
  <path id="Path_236" data-name="Path 236" d="M0,0H12.634V12.634H0Z" fill="none"/>
  <path id="Path_237" data-name="Path 237" d="M3,10.611v1.6a.261.261,0,0,0,.263.263h1.6a.247.247,0,0,0,.184-.079L10.8,6.652,8.822,4.678,3.079,10.421a.258.258,0,0,0-.079.19Zm9.323-5.485a.524.524,0,0,0,0-.742L11.091,3.151a.524.524,0,0,0-.742,0l-.963.963L11.36,6.089l.963-.963Z" transform="translate(-1.421 -1.42)" fill="#1c1c1c"/>
</svg>
