<svg xmlns="http://www.w3.org/2000/svg" width="10.053" height="10.053" viewBox="0 0 10.053 10.053">
  <g id="rename" transform="translate(0)">
    <path id="Path_238" data-name="Path 238" d="M6.419,2a.419.419,0,1,0,0,.838h.838v8.378H6.419a.419.419,0,1,0,0,.838H8.932a.419.419,0,1,0,0-.838H8.094V2.838h.838a.419.419,0,1,0,0-.838Z" transform="translate(-2.649 -2)" fill="#212121"/>
    <path id="Path_239" data-name="Path 239" d="M3.676,4H5.77v.838H3.676a.838.838,0,0,0-.838.838V9.024a.838.838,0,0,0,.838.838H5.77V10.7H3.676A1.676,1.676,0,0,1,2,9.024V5.676A1.676,1.676,0,0,1,3.676,4Zm6.7,5.862H8.283V10.7h2.094a1.676,1.676,0,0,0,1.676-1.676V5.676A1.676,1.676,0,0,0,10.378,4H8.283v.838h2.094a.838.838,0,0,1,.838.838V9.024A.838.838,0,0,1,10.378,9.862Z" transform="translate(-2 -2.324)" fill="#212121"/>
  </g>
</svg>
