<svg id="view" xmlns="http://www.w3.org/2000/svg" width="13.444" height="8.555" viewBox="0 0 13.444 8.555">
  <path id="Path_240" data-name="Path 240" d="M7.722,5A7.853,7.853,0,0,0,1,9.278a7.853,7.853,0,0,0,6.722,4.278,7.852,7.852,0,0,0,6.722-4.278A7.853,7.853,0,0,0,7.722,5Zm0,7.333a6.417,6.417,0,0,1-5.27-3.055,6.417,6.417,0,0,1,5.27-3.055,6.415,6.415,0,0,1,5.27,3.055,6.415,6.415,0,0,1-5.27,3.055Z" transform="translate(-1 -5)" fill="#fff"/>
  <circle id="Ellipse_45" data-name="Ellipse 45" cx="1.517" cy="1.517" r="1.517" transform="translate(5.205 2.76)" fill="#fff"/>
</svg>
