<svg id="edit" xmlns="http://www.w3.org/2000/svg" width="15.639" height="15.639" viewBox="0 0 15.639 15.639">
  <path id="Path_32" data-name="Path 32" d="M0,0H15.639V15.639H0Z" fill="none"/>
  <path id="Path_33" data-name="Path 33" d="M3,12.421V14.4a.323.323,0,0,0,.326.326H5.307a.306.306,0,0,0,.228-.1L12.65,7.521,10.207,5.078,3.1,12.187a.32.32,0,0,0-.1.235Zm11.54-6.79a.649.649,0,0,0,0-.919L13.015,3.188a.649.649,0,0,0-.919,0L10.9,4.381l2.444,2.444L14.54,5.632Z" transform="translate(-1.045 -1.044)" fill="#ffbb1c"/>
</svg>
