<svg xmlns="http://www.w3.org/2000/svg" width="8.551" height="8.551" viewBox="0 0 8.551 8.551">
  <path id="arrow_1_" data-name="arrow (1)" d="M7.126,4.632V3.919a.361.361,0,0,0-.356-.356H3.975L5.027,2.511a.35.35,0,0,0,0-.5L4.52,1.5a.363.363,0,0,0-.5,0L2,3.518,1.5,4.025a.363.363,0,0,0,0,.5L2,5.032,4.019,7.048a.363.363,0,0,0,.5,0l.507-.507a.363.363,0,0,0,0-.5L3.975,4.988H6.769a.361.361,0,0,0,.356-.356Zm1.425-.356a4.182,4.182,0,0,1-.573,2.146A4.256,4.256,0,0,1,6.421,7.977a4.182,4.182,0,0,1-2.146.573,4.182,4.182,0,0,1-2.146-.573A4.256,4.256,0,0,1,.573,6.421,4.182,4.182,0,0,1,0,4.275,4.182,4.182,0,0,1,.573,2.129,4.256,4.256,0,0,1,2.129.573,4.182,4.182,0,0,1,4.275,0,4.182,4.182,0,0,1,6.421.573,4.256,4.256,0,0,1,7.977,2.129,4.182,4.182,0,0,1,8.551,4.275Z" transform="translate(8.551) rotate(90)" fill="#00ade4"/>
</svg>
