<svg xmlns="http://www.w3.org/2000/svg" width="32.077" height="27.885" viewBox="0 0 32.077 27.885">
  <g id="row1" transform="translate(0)">
    <path id="icon:3" d="M64.441,50.442l-.609-1.06H61.038l.986-1.753L61.433,46.6H60.252l-1.567,2.78H57.593l.837-1.487-.591-1.027H56.659l-.716,1.269-1.78-3.1,1.45.009.591-1.027L55.613,43l-1.7-.019.544-.949,3.184.028.591-1.027L57.64,40l-2.008-.014,1.4-2.436L56.422,36.5H55.2l-1.4,2.431-1.018-1.738H51.606l-.591,1.027,1.613,2.752-.544.953-.865-1.474H50.039l-.591,1.027.739,1.255H46.622l.735-1.255-.591-1.027H45.585l-.865,1.474-.544-.953L45.79,38.22,45.2,37.193H44.018L43,38.931,41.6,36.5H40.383l-.609,1.055,1.4,2.436-2.008.014-.591,1.028.591,1.027,3.184-.028.544.949-1.7.019L40.6,44.022l.591,1.027,1.45-.009-1.78,3.1-.716-1.269H38.966l-.591,1.027.837,1.487H38.12L36.553,46.6H35.372l-.591,1.028.99,1.753h-2.8l-.609,1.06.609,1.06h2.8l-.99,1.753.591,1.028h1.181l1.567-2.78h1.093l-.837,1.487.591,1.028h1.181l.716-1.269,1.78,3.1-1.45-.009L40.6,56.862l.591,1.023,1.7.019-.544.949-3.184-.028-.591,1.028.591,1.028,2.008.014-1.4,2.436.609,1.055H41.6L43,61.953l1.018,1.738H45.2l.591-1.028-1.613-2.752.544-.953.865,1.474h1.181l.591-1.028-.735-1.255h3.565l-.739,1.255.591,1.028h1.181l.865-1.474.544.953-1.613,2.752.591,1.028h1.181L53.8,61.953l1.4,2.431h1.218l.609-1.055-1.4-2.436,2.008-.019.591-1.023-.591-1.028-3.18.028-.549-.949,1.7-.019.591-1.028-.591-1.023-1.45.009,1.78-3.1.716,1.269h1.181l.591-1.028L57.592,51.5h1.093l1.567,2.78h1.181l.591-1.028L61.037,51.5h2.794ZM51.728,53.375H50.095l-.814,1.411a1.014,1.014,0,0,1-1.757,0l-.814-1.411H45.077a1.014,1.014,0,0,1-.878-1.52l.815-1.413L44.2,49.029a1.014,1.014,0,0,1,.878-1.52H46.71l.814-1.411a1.014,1.014,0,0,1,1.757,0l.814,1.411h1.633a1.014,1.014,0,0,1,.878,1.52l-.814,1.413.815,1.413A1.014,1.014,0,0,1,51.728,53.375Z" transform="translate(-32.364 -36.5)" fill="#dcdcdc" fill-rule="evenodd"/>
  </g>
</svg>
