<svg id="row1" xmlns="http://www.w3.org/2000/svg" width="32.881" height="28.584" viewBox="0 0 32.881 28.584">
  <path id="icon:3" d="M65.245,50.791,64.621,49.7H61.757l1.01-1.8-.605-1.053h-1.21L59.346,49.7h-1.12l.858-1.525-.605-1.053h-1.21l-.734,1.3-1.825-3.174,1.487.009L56.8,44.21,56.2,43.162l-1.744-.019.558-.972,3.264.029.605-1.053-.605-1.053-2.058-.015,1.434-2.5L57.025,36.5H55.776l-1.434,2.492L53.3,37.21h-1.21l-.605,1.053,1.654,2.821-.558.977-.887-1.511h-1.21L49.877,41.6l.758,1.287H46.979l.753-1.287-.605-1.053h-1.21l-.887,1.511-.558-.977,1.654-2.821-.605-1.053H44.31l-1.044,1.782L41.833,36.5H40.584l-.624,1.081,1.434,2.5-2.058.015-.605,1.053.605,1.053,3.264-.029.558.972-1.744.019-.605,1.048.605,1.053,1.487-.009-1.825,3.174-.734-1.3h-1.21l-.605,1.053.858,1.525h-1.12l-1.606-2.849h-1.21l-.605,1.053,1.015,1.8H32.989l-.625,1.086.624,1.087h2.869l-1.015,1.8.605,1.053h1.21l1.606-2.85h1.12L38.525,53.4l.605,1.053h1.21l.734-1.3L42.9,56.329l-1.487-.009-.605,1.053.605,1.048,1.744.019-.558.972-3.264-.029-.605,1.053.605,1.053,2.058.014L39.96,64l.624,1.082h1.248l1.434-2.492,1.044,1.782h1.21l.605-1.053L44.472,60.5l.558-.977.887,1.511h1.21l.605-1.053-.753-1.287h3.655l-.758,1.287.605,1.053h1.21l.887-1.511.558.977L51.482,63.32l.605,1.053H53.3l1.044-1.782,1.434,2.492h1.248L57.648,64l-1.434-2.5,2.058-.019.605-1.048-.605-1.053-3.259.029-.562-.972,1.744-.019.605-1.053-.605-1.048-1.487.009,1.825-3.174.734,1.3h1.21l.605-1.053-.858-1.525h1.12l1.606,2.85h1.21l.605-1.053-1.01-1.8H64.62ZM52.214,53.8H50.539l-.834,1.446a1.04,1.04,0,0,1-1.8,0L47.07,53.8H45.4a1.039,1.039,0,0,1-.9-1.559l.835-1.448-.836-1.448a1.039,1.039,0,0,1,.9-1.559h1.674l.834-1.446a1.039,1.039,0,0,1,1.8,0l.834,1.446h1.674a1.039,1.039,0,0,1,.9,1.559l-.834,1.448.836,1.448A1.04,1.04,0,0,1,52.214,53.8Z" transform="translate(-32.364 -36.5)" fill="#ffbb1c" fill-rule="evenodd"/>
</svg>
