<svg xmlns="http://www.w3.org/2000/svg" width="14.878" height="28.268" viewBox="0 0 14.878 28.268">
  <path id="thermometer-up" d="M13.439,5A4.853,4.853,0,0,0,8.6,9.835v10.41A7.381,7.381,0,0,0,6,25.829a7.439,7.439,0,0,0,14.878,0,7.382,7.382,0,0,0-2.6-5.584V9.835A4.853,4.853,0,0,0,13.439,5Zm0,2.232a2.588,2.588,0,0,1,2.6,2.6V20.723a1.116,1.116,0,0,0,.457.9,5.207,5.207,0,1,1-6.122,0,1.116,1.116,0,0,0,.458-.9V9.835A2.588,2.588,0,0,1,13.439,7.232Zm-.017,6.679a1.116,1.116,0,0,0-1.1,1.132v7.238a3.713,3.713,0,1,0,2.232,0V15.043a1.116,1.116,0,0,0-1.133-1.132Z" transform="translate(-6 -5)" fill="#dcdcdc"/>
</svg>
