<svg xmlns="http://www.w3.org/2000/svg" width="16.893" height="32.097" viewBox="0 0 16.893 32.097">
  <path id="thermometer-up" d="M14.447,5a5.51,5.51,0,0,0-5.49,5.49v11.82A8.381,8.381,0,0,0,6,28.651a8.447,8.447,0,1,0,16.893,0,8.382,8.382,0,0,0-2.956-6.34V10.49A5.51,5.51,0,0,0,14.447,5Zm0,2.534A2.938,2.938,0,0,1,17.4,10.49V22.853a1.267,1.267,0,0,0,.519,1.023,5.913,5.913,0,1,1-6.952,0,1.267,1.267,0,0,0,.52-1.023V10.49A2.938,2.938,0,0,1,14.447,7.534Zm-.02,7.584A1.267,1.267,0,0,0,13.18,16.4v8.219a4.216,4.216,0,1,0,2.534,0V16.4a1.267,1.267,0,0,0-1.287-1.285Z" transform="translate(-6 -5)" fill="#ffbb1c"/>
</svg>
