<svg xmlns="http://www.w3.org/2000/svg" width="30.012" height="30.012" viewBox="0 0 30.012 30.012">
  <path id="fan" d="M19.006,4A15.006,15.006,0,1,0,34.012,19.006,15.023,15.023,0,0,0,19.006,4Zm0,2.251A12.755,12.755,0,1,1,6.251,19.006,12.738,12.738,0,0,1,19.006,6.251Zm-.05,2.123a2.546,2.546,0,0,0-2.544,2.545,2.5,2.5,0,0,0,.056.533l1.087,5.064a2.106,2.106,0,0,1-1.414,2.45l-4.93,1.591a2.544,2.544,0,1,0,2.053,4.623,2.6,2.6,0,0,0,.435-.315l3.842-3.475a2.109,2.109,0,0,1,2.83,0l3.842,3.475a2.547,2.547,0,0,0,3.91-.615,2.548,2.548,0,0,0-.933-3.476,2.481,2.481,0,0,0-.489-.217l-4.93-1.591a2.109,2.109,0,0,1-1.416-2.45l1.087-5.064a2.543,2.543,0,0,0-2.487-3.079Zm.05,9.506a1.125,1.125,0,1,1-1.125,1.125A1.126,1.126,0,0,1,19.006,17.88Z" transform="translate(-4 -4)" fill="#ffbb1c"/>
</svg>
