<svg xmlns="http://www.w3.org/2000/svg" width="28.739" height="31.399" viewBox="0 0 28.739 31.399">
  <g id="Group_86" data-name="Group 86" transform="translate(0 -0.001)">
    <g id="Path_79" data-name="Path 79" transform="translate(6.929 22.042)" fill="#3eaaff">
      <path d="M 6.121679306030273 -4.872292518615723 C 3.57327938079834 -4.872292518615723 1.499999284744263 -6.945602416992188 1.499999284744263 -9.49404239654541 C 1.499999284744263 -10.01007270812988 1.778559327125549 -11.70460224151611 4.358709335327148 -16.28315353393555 C 4.97892951965332 -17.38375091552734 5.603511333465576 -18.42006683349609 6.121679306030273 -19.25538444519043 C 6.639842510223389 -18.42007446289062 7.264429092407227 -17.38375091552734 7.884649276733398 -16.28315353393555 C 10.46479892730713 -11.70460224151611 10.74335956573486 -10.01007270812988 10.74335956573486 -9.49404239654541 C 10.74335956573486 -6.945602416992188 8.670079231262207 -4.872292518615723 6.121679306030273 -4.872292518615723 Z" stroke="none"/>
      <path d="M 6.121679306030273 -16.3438720703125 C 5.975810050964355 -16.09268569946289 5.828578948974609 -15.8358154296875 5.681599140167236 -15.57529258728027 C 3.057559013366699 -10.9241828918457 3.00110912322998 -9.548322677612305 2.999999046325684 -9.49404239654541 C 2.999999046325684 -7.772703170776367 4.400379180908203 -6.372293472290039 6.121679306030273 -6.372293472290039 C 7.842979431152344 -6.372293472290039 9.243359565734863 -7.772703170776367 9.243369102478027 -9.492033004760742 C 9.242249488830566 -9.548322677612305 9.185799598693848 -10.9241828918457 6.561759471893311 -15.57529258728027 C 6.414779663085938 -15.8358154296875 6.267548561096191 -16.09268569946289 6.121679306030273 -16.3438720703125 M 6.121679306030273 -22.04101181030273 C 6.121679306030273 -22.04101181030273 12.24335956573486 -12.87499237060547 12.24335956573486 -9.49404239654541 C 12.24335956573486 -6.113092422485352 9.502589225769043 -3.372293472290039 6.121679306030273 -3.372293472290039 C 2.740769386291504 -3.372293472290039 -9.5367431640625e-07 -6.113092422485352 -9.5367431640625e-07 -9.49404239654541 C -9.5367431640625e-07 -12.87499237060547 6.121679306030273 -22.04101181030273 6.121679306030273 -22.04101181030273 Z" stroke="none" fill="#3eaaff"/>
    </g>
    <g id="Path_80" data-name="Path 80" transform="translate(16.496 34.772)" fill="#3eaaff">
      <path d="M 6.121679306030273 -4.872292518615723 C 3.57327938079834 -4.872292518615723 1.499999284744263 -6.945602416992188 1.499999284744263 -9.49404239654541 C 1.499999284744263 -10.01007270812988 1.778559327125549 -11.70460224151611 4.358709335327148 -16.28315353393555 C 4.97892951965332 -17.38375091552734 5.603511333465576 -18.42006683349609 6.121679306030273 -19.25538444519043 C 6.639842510223389 -18.42007446289062 7.264429092407227 -17.38375091552734 7.884649276733398 -16.28315353393555 C 10.46479892730713 -11.70460224151611 10.74335956573486 -10.01007270812988 10.74335956573486 -9.49404239654541 C 10.74335956573486 -6.945602416992188 8.670079231262207 -4.872292518615723 6.121679306030273 -4.872292518615723 Z" stroke="none"/>
      <path d="M 6.121679306030273 -16.3438720703125 C 5.975810050964355 -16.09268569946289 5.828578948974609 -15.8358154296875 5.681599140167236 -15.57529258728027 C 3.057559013366699 -10.9241828918457 3.00110912322998 -9.548322677612305 2.999999046325684 -9.49404239654541 C 2.999999046325684 -7.772703170776367 4.400379180908203 -6.372293472290039 6.121679306030273 -6.372293472290039 C 7.842979431152344 -6.372293472290039 9.243359565734863 -7.772703170776367 9.243369102478027 -9.492033004760742 C 9.242249488830566 -9.548322677612305 9.185799598693848 -10.9241828918457 6.561759471893311 -15.57529258728027 C 6.414779663085938 -15.8358154296875 6.267548561096191 -16.09268569946289 6.121679306030273 -16.3438720703125 M 6.121679306030273 -22.04101181030273 C 6.121679306030273 -22.04101181030273 12.24335956573486 -12.87499237060547 12.24335956573486 -9.49404239654541 C 12.24335956573486 -6.113092422485352 9.502589225769043 -3.372293472290039 6.121679306030273 -3.372293472290039 C 2.740769386291504 -3.372293472290039 -9.5367431640625e-07 -6.113092422485352 -9.5367431640625e-07 -9.49404239654541 C -9.5367431640625e-07 -12.87499237060547 6.121679306030273 -22.04101181030273 6.121679306030273 -22.04101181030273 Z" stroke="none" fill="#3eaaff"/>
    </g>
    <g id="Path_81" data-name="Path 81" transform="translate(0 36.205)" fill="#3eaaff">
      <path d="M 4.26155948638916 -10.54493045806885 C 2.738829374313354 -10.54493045806885 1.499999523162842 -11.78378105163574 1.499999523162842 -13.30654048919678 C 1.499999523162842 -13.48593044281006 1.592989444732666 -14.54585075378418 3.428719520568848 -17.80426025390625 C 3.712308883666992 -18.30763053894043 3.997378349304199 -18.79176712036133 4.26155948638916 -19.22900390625 C 4.525738716125488 -18.79177093505859 4.810810089111328 -18.30763053894043 5.094399452209473 -17.80426025390625 C 6.930129528045654 -14.54585075378418 7.023119449615479 -13.48593044281006 7.023119449615479 -13.30654048919678 C 7.023119449615479 -11.78378105163574 5.784289360046387 -10.54493045806885 4.26155948638916 -10.54493045806885 Z" stroke="none"/>
      <path d="M 4.261547088623047 -16.20344924926758 C 3.192487239837646 -14.19328880310059 3.024141788482666 -13.40567779541016 3.000720024108887 -13.26361083984375 C 3.023406505584717 -12.58773422241211 3.580280303955078 -12.04493141174316 4.26155948638916 -12.04493141174316 C 4.942838668823242 -12.04493141174316 5.499711990356445 -12.58773040771484 5.522398948669434 -13.26360702514648 C 5.498970031738281 -13.40567779541016 5.330562114715576 -14.19332695007324 4.261547088623047 -16.20344924926758 M 4.26155948638916 -22.04101943969727 C 4.26155948638916 -22.04101943969727 8.523119926452637 -15.66016101837158 8.523119926452637 -13.30654144287109 C 8.523119926452637 -10.95291137695312 6.61514949798584 -9.044931411743164 4.26155948638916 -9.044931411743164 C 1.90796947479248 -9.044931411743164 -9.5367431640625e-07 -10.95291137695312 -9.5367431640625e-07 -13.30654144287109 C -9.5367431640625e-07 -15.66016101837158 4.26155948638916 -22.04101943969727 4.26155948638916 -22.04101943969727 Z" stroke="none" fill="#3eaaff"/>
    </g>
  </g>
</svg>
