<svg xmlns="http://www.w3.org/2000/svg" width="28.739" height="31.399" viewBox="0 0 28.739 31.399">
  <g id="Group_86" data-name="Group 86" transform="translate(0)">
    <g id="Path_79" data-name="Path 79" transform="translate(6.929 22.041)" fill="none">
      <path d="M6.122-22.041s6.122,9.166,6.122,12.547A6.122,6.122,0,0,1,6.122-3.372,6.122,6.122,0,0,1,0-9.494C0-12.875,6.122-22.041,6.122-22.041Z" stroke="none"/>
      <path d="M 6.121681213378906 -16.34388160705566 C 5.975811958312988 -16.09269332885742 5.828580856323242 -15.83582305908203 5.681601047515869 -15.57530117034912 C 3.057560920715332 -10.92418098449707 3.001111030578613 -9.548320770263672 3.000000953674316 -9.494040489196777 C 3.000000953674316 -7.772701263427734 4.400381088256836 -6.372291564941406 6.121681213378906 -6.372291564941406 C 7.842981338500977 -6.372291564941406 9.243361473083496 -7.772701263427734 9.24337100982666 -9.492031097412109 C 9.242251396179199 -9.548320770263672 9.18580150604248 -10.92418098449707 6.561761379241943 -15.57530117034912 C 6.41478157043457 -15.83582305908203 6.267550468444824 -16.09269332885742 6.121681213378906 -16.34388160705566 M 6.121681213378906 -22.0410213470459 C 6.121681213378906 -22.0410213470459 12.2433614730835 -12.87499046325684 12.2433614730835 -9.494040489196777 C 12.2433614730835 -6.113090515136719 9.502591133117676 -3.372291564941406 6.121681213378906 -3.372291564941406 C 2.740771293640137 -3.372291564941406 9.5367431640625e-07 -6.113090515136719 9.5367431640625e-07 -9.494040489196777 C 9.5367431640625e-07 -12.87499046325684 6.121681213378906 -22.0410213470459 6.121681213378906 -22.0410213470459 Z" stroke="none" fill="#dcdcdc"/>
    </g>
    <g id="Path_80" data-name="Path 80" transform="translate(16.495 34.771)" fill="none">
      <path d="M6.122-22.041s6.122,9.166,6.122,12.547A6.122,6.122,0,0,1,6.122-3.372,6.122,6.122,0,0,1,0-9.494C0-12.875,6.122-22.041,6.122-22.041Z" stroke="none"/>
      <path d="M 6.121681213378906 -16.34388160705566 C 5.975811958312988 -16.09269332885742 5.828580856323242 -15.83582305908203 5.681601047515869 -15.57530117034912 C 3.057560920715332 -10.92418098449707 3.001111030578613 -9.548320770263672 3.000000953674316 -9.494040489196777 C 3.000000953674316 -7.772701263427734 4.400381088256836 -6.372291564941406 6.121681213378906 -6.372291564941406 C 7.842981338500977 -6.372291564941406 9.243361473083496 -7.772701263427734 9.24337100982666 -9.492031097412109 C 9.242251396179199 -9.548320770263672 9.18580150604248 -10.92418098449707 6.561761379241943 -15.57530117034912 C 6.41478157043457 -15.83582305908203 6.267550468444824 -16.09269332885742 6.121681213378906 -16.34388160705566 M 6.121681213378906 -22.0410213470459 C 6.121681213378906 -22.0410213470459 12.2433614730835 -12.87499046325684 12.2433614730835 -9.494040489196777 C 12.2433614730835 -6.113090515136719 9.502591133117676 -3.372291564941406 6.121681213378906 -3.372291564941406 C 2.740771293640137 -3.372291564941406 9.5367431640625e-07 -6.113090515136719 9.5367431640625e-07 -9.494040489196777 C 9.5367431640625e-07 -12.87499046325684 6.121681213378906 -22.0410213470459 6.121681213378906 -22.0410213470459 Z" stroke="none" fill="#dcdcdc"/>
    </g>
    <g id="Path_81" data-name="Path 81" transform="translate(0 36.204)" fill="none">
      <path d="M4.262-22.041s4.262,6.381,4.262,8.734A4.262,4.262,0,0,1,4.262-9.045,4.262,4.262,0,0,1,0-13.307C0-15.66,4.262-22.041,4.262-22.041Z" stroke="none"/>
      <path d="M 4.261548042297363 -16.20344924926758 C 3.192488193511963 -14.19328880310059 3.024142742156982 -13.40567779541016 3.000720977783203 -13.26361083984375 C 3.023407459259033 -12.58773422241211 3.580281257629395 -12.04493141174316 4.261560440063477 -12.04493141174316 C 4.942839622497559 -12.04493141174316 5.499712944030762 -12.58773040771484 5.52239990234375 -13.26360702514648 C 5.498970985412598 -13.40567779541016 5.330563068389893 -14.19332695007324 4.261548042297363 -16.20344924926758 M 4.261560440063477 -22.04101943969727 C 4.261560440063477 -22.04101943969727 8.523120880126953 -15.66016101837158 8.523120880126953 -13.30654144287109 C 8.523120880126953 -10.95291137695312 6.615160465240479 -9.044931411743164 4.261560440063477 -9.044931411743164 C 1.907970428466797 -9.044931411743164 0 -10.95291137695312 0 -13.30654144287109 C 0 -15.66016101837158 4.261560440063477 -22.04101943969727 4.261560440063477 -22.04101943969727 Z" stroke="none" fill="#dcdcdc"/>
    </g>
  </g>
</svg>
