<svg xmlns="http://www.w3.org/2000/svg" width="37.514" height="26.43" viewBox="0 0 37.514 26.43">
  <path id="motor" d="M35.841,42.873H16.529l-.98,2.558H39.081l-.98-2.558ZM19.215,40.315h16.2V42.02h-16.2ZM10.263,26.673v9.378a1.71,1.71,0,0,0,1.705,1.705V24.968A1.71,1.71,0,0,0,10.263,26.673Zm12.789-5.968h8.526V22.41H23.052ZM14.526,39.888V22.41a1.71,1.71,0,0,0-1.705,1.705V38.61a1.71,1.71,0,0,0,1.705,1.705Zm8.1-16.626H15.378v16.2H39.251v-16.2ZM36.267,37.757h-17.9a1.279,1.279,0,1,1,0-2.558h17.9a1.279,1.279,0,0,1,0,2.558Zm0-5.116h-17.9a1.279,1.279,0,1,1,0-2.558h17.9a1.279,1.279,0,1,1,0,2.558Zm1.279-6.394a1.256,1.256,0,0,1-1.279,1.279h-17.9a1.279,1.279,0,1,1,0-2.558h17.9A1.256,1.256,0,0,1,37.546,26.247Zm4.263-3.837H40.1v17.9h1.705a1.71,1.71,0,0,0,1.705-1.705V24.116A1.71,1.71,0,0,0,41.809,22.41ZM31.791,19.853,32.43,19H22.2l.639.853ZM6,30.084H9.41v2.558H6Z" transform="translate(-6 -19)" fill="#dcdcdc"/>
</svg>
