<svg xmlns="http://www.w3.org/2000/svg" width="31.222" height="31.222" viewBox="0 0 31.222 31.222">
  <path id="fan" d="M19.611,4A15.611,15.611,0,1,0,35.222,19.611,15.629,15.629,0,0,0,19.611,4Zm0,2.342A13.269,13.269,0,1,1,6.342,19.611,13.252,13.252,0,0,1,19.611,6.342Zm-.052,2.209A2.649,2.649,0,0,0,16.913,11.2a2.6,2.6,0,0,0,.058.555L18.1,17.023a2.191,2.191,0,0,1-1.471,2.549L11.5,21.227a2.646,2.646,0,1,0,2.136,4.81,2.707,2.707,0,0,0,.453-.328l4-3.615a2.194,2.194,0,0,1,2.944,0l4,3.615a2.65,2.65,0,0,0,4.067-.64,2.651,2.651,0,0,0-.971-3.616,2.581,2.581,0,0,0-.509-.226l-5.129-1.656a2.194,2.194,0,0,1-1.473-2.549l1.131-5.269a2.645,2.645,0,0,0-2.587-3.2Zm.052,9.89a1.171,1.171,0,1,1-1.171,1.171A1.171,1.171,0,0,1,19.611,18.44Z" transform="translate(-4 -4)" fill="#ffbb1c"/>
</svg>
