<svg xmlns="http://www.w3.org/2000/svg" width="35.082" height="45.748" viewBox="0 0 35.082 45.748">
  <path id="delete" d="M39.123,19.663l-.737,22.3a7.346,7.346,0,0,1-7.368,7.1h-14a7.346,7.346,0,0,1-7.368-7.1L8.913,19.663a1.843,1.843,0,0,1,3.684-.122l.737,22.308a3.684,3.684,0,0,0,3.684,3.542h14a3.684,3.684,0,0,0,3.684-3.55l.737-22.3a1.843,1.843,0,0,1,3.684.122Zm2.437-7.422a1.842,1.842,0,0,1-1.842,1.842H8.32a1.842,1.842,0,0,1,0-3.684h5.71a2.35,2.35,0,0,0,2.345-2.115,5.51,5.51,0,0,1,5.5-4.963h4.292a5.51,5.51,0,0,1,5.5,4.963A2.35,2.35,0,0,0,34.006,10.4h5.71a1.842,1.842,0,0,1,1.842,1.842ZM19.573,10.4h8.894A6.079,6.079,0,0,1,28,8.66,1.842,1.842,0,0,0,26.166,7H21.874A1.842,1.842,0,0,0,20.043,8.66a6.079,6.079,0,0,1-.472,1.739Zm1.855,27.909V22.623a1.842,1.842,0,0,0-3.684,0V38.316a1.842,1.842,0,1,0,3.684,0Zm8.868,0V22.623a1.842,1.842,0,1,0-3.684,0V38.316a1.842,1.842,0,1,0,3.684,0Z" transform="translate(-6.478 -3.322)" fill="#ff4a4a"/>
</svg>
