<svg xmlns="http://www.w3.org/2000/svg" width="16.423" height="21.416" viewBox="0 0 16.423 21.416">
  <path id="delete" d="M21.76,10.972l-.345,10.44a3.439,3.439,0,0,1-3.449,3.326H11.412a3.439,3.439,0,0,1-3.449-3.323L7.618,10.972a.863.863,0,0,1,1.725-.057l.345,10.443a1.725,1.725,0,0,0,1.725,1.658h6.554a1.725,1.725,0,0,0,1.725-1.662l.345-10.44a.863.863,0,0,1,1.725.057ZM22.9,7.5a.862.862,0,0,1-.862.862H7.34a.862.862,0,0,1,0-1.725h2.673a1.1,1.1,0,0,0,1.1-.99,2.579,2.579,0,0,1,2.573-2.323h2.009a2.579,2.579,0,0,1,2.573,2.323,1.1,1.1,0,0,0,1.1.99h2.673A.862.862,0,0,1,22.9,7.5ZM12.608,6.635h4.163a2.846,2.846,0,0,1-.22-.814.862.862,0,0,0-.857-.776H13.685a.862.862,0,0,0-.857.776,2.846,2.846,0,0,1-.221.814ZM13.477,19.7V12.358a.862.862,0,0,0-1.725,0V19.7a.862.862,0,1,0,1.725,0Zm4.151,0V12.358a.862.862,0,1,0-1.725,0V19.7a.862.862,0,1,0,1.725,0Z" transform="translate(-6.478 -3.322)" fill="#013a67"/>
</svg>
