<svg xmlns="http://www.w3.org/2000/svg" width="14" height="14.001" viewBox="0 0 14 14.001">
  <path id="pin" d="M13.819,4.018,9.984.183a.606.606,0,0,0-.867,0,2.909,2.909,0,0,0-.731,2.679L6.651,4.6a5.194,5.194,0,0,0-5.22,1.02.606.606,0,0,0,0,.867L4.048,9.1.183,12.966a.606.606,0,0,0,0,.867A.654.654,0,0,0,.609,14a.6.6,0,0,0,.426-.183L4.9,9.953l2.618,2.618a.588.588,0,0,0,.852,0,5.2,5.2,0,0,0,1.02-5.22l1.735-1.735A2.928,2.928,0,0,0,13.8,4.885a.594.594,0,0,0,.015-.867Zm-2.572.335a.606.606,0,0,0-.685.122L8.279,6.757a.617.617,0,0,0-.137.654,5.429,5.429,0,0,1,.32,1.568,3.636,3.636,0,0,1-.548,2.252L5.327,8.675,2.739,6.088a4.437,4.437,0,0,1,3.82-.228.613.613,0,0,0,.67-.137L9.512,3.439a.606.606,0,0,0,.122-.685,1.4,1.4,0,0,1,0-1.187l2.8,2.8a1.461,1.461,0,0,1-1.187-.015ZM7.64,7.655a2.509,2.509,0,0,1,.2.959.526.526,0,0,1-.533.517H7.29a.539.539,0,0,1-.517-.548,1.564,1.564,0,0,0-.107-.5.524.524,0,0,1,.274-.7.531.531,0,0,1,.7.274Z" fill="#dcdcdc"/>
</svg>
