<svg xmlns="http://www.w3.org/2000/svg" width="35.622" height="38.919" viewBox="0 0 35.622 38.919">
  <g id="Group_86" data-name="Group 86" transform="translate(0 -0.001)">
    <g id="Path_79" data-name="Path 79" transform="translate(8.589 22.042)" fill="none">
      <path d="M7.588-22.041S15.176-10.68,15.176-6.489A7.588,7.588,0,0,1,7.588,1.1,7.588,7.588,0,0,1,0-6.489C0-10.68,7.588-22.041,7.588-22.041Z" stroke="none"/>
      <path d="M 7.587855339050293 -16.3950309753418 C 7.206420421600342 -15.75627899169922 6.806357383728027 -15.0709056854248 6.407157897949219 -14.36294078826904 C 3.095607757568359 -8.490071296691895 2.999998092651367 -6.676301002502441 2.999998092651367 -6.488821029663086 C 2.999998092651367 -3.958980560302734 5.058137893676758 -1.900810241699219 7.58792781829834 -1.900810241699219 C 10.11771774291992 -1.900810241699219 12.17585754394531 -3.958980560302734 12.17585754394531 -6.488821029663086 C 12.17585754394531 -6.675701141357422 12.08073806762695 -8.483461380004883 8.785967826843262 -14.33230113983154 C 8.381462097167969 -15.05037879943848 7.975204944610596 -15.74647808074951 7.587855339050293 -16.3950309753418 M 7.58792781829834 -22.0410213470459 C 7.58792781829834 -22.0410213470459 15.17585754394531 -10.6795711517334 15.17585754394531 -6.488821029663086 C 15.17585754394531 -2.298080444335938 11.77862739562988 1.099189758300781 7.58792781829834 1.099189758300781 C 3.397228240966797 1.099189758300781 -1.9073486328125e-06 -2.298080444335938 -1.9073486328125e-06 -6.488821029663086 C -1.9073486328125e-06 -10.6795711517334 7.58792781829834 -22.0410213470459 7.58792781829834 -22.0410213470459 Z" stroke="none" fill="#dcdcdc"/>
    </g>
    <g id="Path_80" data-name="Path 80" transform="translate(20.447 37.821)" fill="none">
      <path d="M7.588-22.041S15.176-10.68,15.176-6.489A7.588,7.588,0,0,1,7.588,1.1,7.588,7.588,0,0,1,0-6.489C0-10.68,7.588-22.041,7.588-22.041Z" stroke="none"/>
      <path d="M 7.587855339050293 -16.3950309753418 C 7.206420421600342 -15.75627899169922 6.806357383728027 -15.0709056854248 6.407157897949219 -14.36294078826904 C 3.095607757568359 -8.490071296691895 2.999998092651367 -6.676301002502441 2.999998092651367 -6.488821029663086 C 2.999998092651367 -3.958980560302734 5.058137893676758 -1.900810241699219 7.58792781829834 -1.900810241699219 C 10.11771774291992 -1.900810241699219 12.17585754394531 -3.958980560302734 12.17585754394531 -6.488821029663086 C 12.17585754394531 -6.675701141357422 12.08073806762695 -8.483461380004883 8.785967826843262 -14.33230113983154 C 8.381462097167969 -15.05037879943848 7.975204944610596 -15.74647808074951 7.587855339050293 -16.3950309753418 M 7.58792781829834 -22.0410213470459 C 7.58792781829834 -22.0410213470459 15.17585754394531 -10.6795711517334 15.17585754394531 -6.488821029663086 C 15.17585754394531 -2.298080444335938 11.77862739562988 1.099189758300781 7.58792781829834 1.099189758300781 C 3.397228240966797 1.099189758300781 -1.9073486328125e-06 -2.298080444335938 -1.9073486328125e-06 -6.488821029663086 C -1.9073486328125e-06 -10.6795711517334 7.58792781829834 -22.0410213470459 7.58792781829834 -22.0410213470459 Z" stroke="none" fill="#dcdcdc"/>
    </g>
    <g id="Path_81" data-name="Path 81" transform="translate(0 39.597)" fill="none">
      <path d="M5.282-22.041s5.282,7.909,5.282,10.827A5.282,5.282,0,0,1,5.282-5.932,5.282,5.282,0,0,1,0-11.214C0-14.132,5.282-22.041,5.282-22.041Z" stroke="none"/>
      <path d="M 5.28227710723877 -16.29776000976562 C 3.15066385269165 -12.52619171142578 3.008488178253174 -11.30516815185547 3.000032901763916 -11.20172691345215 C 3.006875038146973 -9.949039459228516 4.028051853179932 -8.932136535644531 5.28227710723877 -8.932136535644531 C 6.536502361297607 -8.932136535644531 7.557679176330566 -9.949039459228516 7.564521312713623 -11.20172691345215 C 7.556066036224365 -11.30516815185547 7.413890361785889 -12.52619171142578 5.28227710723877 -16.29776000976562 M 5.28227710723877 -22.041015625 C 5.28227710723877 -22.041015625 10.56455707550049 -14.1318359375 10.56455707550049 -11.21447563171387 C 10.56455707550049 -8.297126770019531 8.199597358703613 -5.932136535644531 5.28227710723877 -5.932136535644531 C 2.364956855773926 -5.932136535644531 -2.86102294921875e-06 -8.297126770019531 -2.86102294921875e-06 -11.21447563171387 C -2.86102294921875e-06 -14.1318359375 5.28227710723877 -22.041015625 5.28227710723877 -22.041015625 Z" stroke="none" fill="#dcdcdc"/>
    </g>
  </g>
</svg>
