<svg xmlns="http://www.w3.org/2000/svg" xmlns:xlink="http://www.w3.org/1999/xlink" width="20.867" height="39.646" viewBox="0 0 20.867 39.646">
  <defs>
    <radialGradient id="radial-gradient" cx="0.5" cy="0.5" r="0.956" gradientUnits="objectBoundingBox">
      <stop offset="0" stop-color="#ffbb1c"/>
      <stop offset="1" stop-color="#9f730b"/>
      <stop offset="1" stop-color="#805e0e"/>
    </radialGradient>
  </defs>
  <path id="thermometer-up" d="M16.433,5a6.806,6.806,0,0,0-6.782,6.782v14.6A10.353,10.353,0,0,0,6,34.213a10.433,10.433,0,0,0,20.867,0,10.353,10.353,0,0,0-3.652-7.831v-14.6A6.806,6.806,0,0,0,16.433,5Zm0,3.13a3.629,3.629,0,0,1,3.652,3.652V27.053a1.565,1.565,0,0,0,.642,1.263,7.3,7.3,0,1,1-8.587,0,1.565,1.565,0,0,0,.642-1.263V11.782A3.629,3.629,0,0,1,16.433,8.13ZM16.409,17.5a1.565,1.565,0,0,0-1.541,1.587V29.237a5.208,5.208,0,1,0,3.13.006V19.085A1.565,1.565,0,0,0,16.409,17.5Z" transform="translate(-6 -5)" fill="url(#radial-gradient)"/>
</svg>
