<svg xmlns="http://www.w3.org/2000/svg" xmlns:xlink="http://www.w3.org/1999/xlink" width="53.62" height="53.62" viewBox="0 0 53.62 53.62">
  <defs>
    <filter id="Layer_2" x="0" y="0" width="53.62" height="53.62" filterUnits="userSpaceOnUse">
      <feOffset input="SourceAlpha"/>
      <feGaussianBlur stdDeviation="3" result="blur"/>
      <feFlood flood-opacity="0.42"/>
      <feComposite operator="in" in2="blur"/>
      <feComposite in="SourceGraphic"/>
    </filter>
  </defs>
  <g transform="matrix(1, 0, 0, 1, 0, 0)" filter="url(#Layer_2)">
    <path id="Layer_2-2" data-name="Layer 2" d="M35.839,12.686H23.372V3.781A1.781,1.781,0,0,0,21.591,2H3.781A1.781,1.781,0,0,0,2,3.781V35.839A1.781,1.781,0,0,0,3.781,37.62H7.343V28.715a1.781,1.781,0,0,1,1.781-1.781h7.124a1.781,1.781,0,0,1,1.781,1.781V37.62h17.81a1.781,1.781,0,0,0,1.781-1.781V14.467A1.781,1.781,0,0,0,35.839,12.686ZM16.248,19.81H9.124a1.781,1.781,0,0,1,0-3.562h7.124a1.781,1.781,0,0,1,0,3.562Zm0-7.124H9.124a1.781,1.781,0,1,1,0-3.562h7.124a1.781,1.781,0,1,1,0,3.562ZM30.5,30.5a1.781,1.781,0,1,1-3.562,0V28.715a1.781,1.781,0,1,1,3.562,0Zm0-8.905a1.781,1.781,0,0,1-3.562,0V19.81a1.781,1.781,0,1,1,3.562,0Z" transform="translate(7 7)" fill="#fff"/>
  </g>
</svg>
