<svg xmlns="http://www.w3.org/2000/svg" width="125.929" height="20" viewBox="0 0 125.929 20">
  <g id="Group_34" data-name="Group 34" transform="translate(-727 -266)">
    <path id="twitter" d="M22,5.8a8.49,8.49,0,0,1-2.36.64,4.13,4.13,0,0,0,1.81-2.27,8.21,8.21,0,0,1-2.61,1,4.1,4.1,0,0,0-7,3.74A11.64,11.64,0,0,1,3.39,4.62a4.16,4.16,0,0,0-.55,2.07A4.09,4.09,0,0,0,4.66,10.1,4.05,4.05,0,0,1,2.8,9.59v.05a4.1,4.1,0,0,0,3.3,4,3.93,3.93,0,0,1-1.1.17,4.9,4.9,0,0,1-.77-.07,4.11,4.11,0,0,0,3.83,2.84A8.22,8.22,0,0,1,3,18.34a7.93,7.93,0,0,1-1-.06,11.57,11.57,0,0,0,6.29,1.85A11.59,11.59,0,0,0,20,8.45V7.92A8.43,8.43,0,0,0,22,5.8Z" transform="translate(783 264.152)" fill="#013a67"/>
    <path id="google-plus" d="M31.4,10.849H27.473V6.925H25.51v3.925H21.586v1.962H25.51v3.925h1.962V12.812H31.4ZM9.812,14.774h5.551A5.887,5.887,0,1,1,9.812,6.925a5.8,5.8,0,0,1,3.813,1.421L16.2,5.386A9.723,9.723,0,0,0,9.812,3a9.812,9.812,0,1,0,9.812,9.812V10.849H9.812Z" transform="translate(727 263)" fill="#013a67"/>
    <path id="linkedin" d="M0,7.323A2.175,2.175,0,0,1,.707,5.657,2.594,2.594,0,0,1,2.545,5a2.517,2.517,0,0,1,1.8.646A2.279,2.279,0,0,1,5.05,7.384,2.127,2.127,0,0,1,4.364,9a2.6,2.6,0,0,1-1.859.667h-.02A2.472,2.472,0,0,1,.687,9,2.239,2.239,0,0,1,0,7.323ZM.263,25V11.505H4.747V25Zm6.97,0h4.485V17.465a2.63,2.63,0,0,1,1.02-2.253,2.195,2.195,0,0,1,1.444-.475q2.263,0,2.263,3.05V25h4.485V17.263a6.5,6.5,0,0,0-1.414-4.535,4.824,4.824,0,0,0-3.737-1.545,4.585,4.585,0,0,0-4.061,2.242v.04H11.7l.02-.04V11.505H7.232q.04.646.04,4.02T7.232,25Z" transform="translate(832 261)" fill="#013a67"/>
  </g>
</svg>
