<svg xmlns="http://www.w3.org/2000/svg" width="20.929" height="20" viewBox="0 0 20.929 20">
  <path id="linkedin" d="M0,7.323A2.175,2.175,0,0,1,.707,5.657,2.594,2.594,0,0,1,2.545,5a2.517,2.517,0,0,1,1.8.646A2.279,2.279,0,0,1,5.05,7.384,2.127,2.127,0,0,1,4.364,9a2.6,2.6,0,0,1-1.859.667h-.02A2.472,2.472,0,0,1,.687,9,2.239,2.239,0,0,1,0,7.323ZM.263,25V11.505H4.747V25Zm6.97,0h4.485V17.465a2.63,2.63,0,0,1,1.02-2.253,2.195,2.195,0,0,1,1.444-.475q2.263,0,2.263,3.05V25h4.485V17.263a6.5,6.5,0,0,0-1.414-4.535,4.824,4.824,0,0,0-3.737-1.545,4.585,4.585,0,0,0-4.061,2.242v.04H11.7l.02-.04V11.505H7.232q.04.646.04,4.02T7.232,25Z" transform="translate(0 -5)" fill="#fff"/>
</svg>
