<svg xmlns="http://www.w3.org/2000/svg" xmlns:xlink="http://www.w3.org/1999/xlink" width="24" height="23" viewBox="0 0 24 23">
  <defs>
    <clipPath id="clip-path">
      <rect id="Rectangle_158" data-name="Rectangle 158" width="24" height="23" transform="translate(-0.5 0.405)" fill="#013a67"/>
    </clipPath>
  </defs>
  <g id="Mask_Group_1" data-name="Mask Group 1" transform="translate(0.5 -0.405)" clip-path="url(#clip-path)">
    <path id="instagram" d="M15.805,12.853a2.953,2.953,0,1,0,2.953,2.953A2.953,2.953,0,0,0,15.805,12.853ZM27.627,9.936a7.774,7.774,0,0,0-.5-2.691,4.762,4.762,0,0,0-2.762-2.762,7.774,7.774,0,0,0-2.691-.5C20.139,3.9,19.686,3.9,15.805,3.9s-4.334,0-5.869.083a7.774,7.774,0,0,0-2.691.5A4.762,4.762,0,0,0,4.483,7.245a7.774,7.774,0,0,0-.5,2.691C3.9,11.472,3.9,11.924,3.9,15.805s0,4.334.083,5.869a8.167,8.167,0,0,0,.5,2.7,4.691,4.691,0,0,0,1.083,1.667,4.631,4.631,0,0,0,1.679,1.083,7.774,7.774,0,0,0,2.691.5c1.536.083,1.988.083,5.869.083s4.334,0,5.869-.083a7.774,7.774,0,0,0,2.691-.5,4.631,4.631,0,0,0,1.679-1.083,4.691,4.691,0,0,0,1.083-1.667,7.857,7.857,0,0,0,.5-2.7c.083-1.536.083-1.988.083-5.869s0-4.334-.083-5.869ZM24.6,19.46a6.822,6.822,0,0,1-.464,2.143A4.6,4.6,0,0,1,21.6,24.139a6.822,6.822,0,0,1-2.155.417H12.162a6.822,6.822,0,0,1-2.155-.417A4.432,4.432,0,0,1,7.472,21.6a6.536,6.536,0,0,1-.4-2.155c0-.941,0-1.191,0-3.643V12.162a6.536,6.536,0,0,1,.4-2.155A4.179,4.179,0,0,1,8.5,8.448a4.274,4.274,0,0,1,1.512-.976,6.822,6.822,0,0,1,2.155-.417h7.286a6.822,6.822,0,0,1,2.155.417,4.432,4.432,0,0,1,2.536,2.536,6.822,6.822,0,0,1,.417,2.155c0,.941,0,1.191,0,3.643s.083,2.7.048,3.643ZM22.7,10.6A2.833,2.833,0,0,0,21.02,8.924a4.762,4.762,0,0,0-1.643-.262H12.234a4.762,4.762,0,0,0-1.643.31,2.833,2.833,0,0,0-1.679,1.619,5.084,5.084,0,0,0-.25,1.643v7.143a5.084,5.084,0,0,0,.31,1.643A2.833,2.833,0,0,0,10.65,22.7a5.084,5.084,0,0,0,1.583.31h7.143a4.762,4.762,0,0,0,1.643-.31A2.833,2.833,0,0,0,22.7,21.02a4.762,4.762,0,0,0,.31-1.643V12.234a4.5,4.5,0,0,0-.31-1.643Zm-6.893,9.75a4.536,4.536,0,0,1-4.536-4.548h0a4.548,4.548,0,1,1,4.536,4.548Zm4.762-8.2a1.071,1.071,0,0,1,0-2.131h0a1.071,1.071,0,0,1,0,2.131Z" transform="translate(-3.9 -3.9)" fill="#013a67"/>
  </g>
</svg>
