<svg xmlns="http://www.w3.org/2000/svg" xmlns:xlink="http://www.w3.org/1999/xlink" width="23" height="23" viewBox="0 0 23 23">
  <defs>
    <clipPath id="clip-path">
      <rect id="Rectangle_161" data-name="Rectangle 161" width="23" height="23" transform="translate(0.311 0.405)" fill="#013a67"/>
    </clipPath>
  </defs>
  <g id="Mask_Group_4" data-name="Mask Group 4" transform="translate(-0.311 -0.405)" clip-path="url(#clip-path)">
    <path id="linkedin" d="M25.934,3.9H5.767a1.726,1.726,0,0,0-1.75,1.7V26.008a1.726,1.726,0,0,0,1.75,1.7H25.934a1.726,1.726,0,0,0,1.75-1.7V5.6a1.726,1.726,0,0,0-1.75-1.7ZM11.2,23.829H7.624V13.114H11.2ZM9.41,11.614h0a1.857,1.857,0,1,1,0-3.714,1.869,1.869,0,1,1,0,3.714ZM24.077,23.829H20.505v-5.75c0-1.441-.512-2.381-1.81-2.381A1.964,1.964,0,0,0,16.863,17a2.381,2.381,0,0,0-.119.869v5.953H13.172V13.1h3.572v1.512a3.572,3.572,0,0,1,3.226-1.786c2.381,0,4.107,1.536,4.107,4.833Z" transform="translate(-3.945 -3.9)" fill="#013a67"/>
  </g>
</svg>
