<svg xmlns="http://www.w3.org/2000/svg" xmlns:xlink="http://www.w3.org/1999/xlink" width="23" height="23" viewBox="0 0 23 23">
  <defs>
    <clipPath id="clip-path">
      <rect id="Rectangle_159" data-name="Rectangle 159" width="23" height="23" transform="translate(0.437 0.405)" fill="#013a67"/>
    </clipPath>
  </defs>
  <g id="Mask_Group_2" data-name="Mask Group 2" transform="translate(-0.437 -0.405)" clip-path="url(#clip-path)">
    <path id="twitter" d="M27.711,9.828a10.108,10.108,0,0,1-2.81.762,4.917,4.917,0,0,0,2.155-2.7,9.774,9.774,0,0,1-3.107,1.191,4.881,4.881,0,0,0-8.334,4.453A13.858,13.858,0,0,1,5.555,8.424,4.953,4.953,0,0,0,4.9,10.888a4.869,4.869,0,0,0,2.167,4.06,4.822,4.822,0,0,1-2.214-.607v.06a4.881,4.881,0,0,0,3.929,4.762,4.679,4.679,0,0,1-1.31.2,5.833,5.833,0,0,1-.917-.083,4.893,4.893,0,0,0,4.56,3.381,9.786,9.786,0,0,1-6.024,2.1A9.441,9.441,0,0,1,3.9,24.686a13.774,13.774,0,0,0,7.488,2.2A13.8,13.8,0,0,0,25.329,12.983v-.631a10.036,10.036,0,0,0,2.381-2.524Z" transform="translate(-3.9 -5.293)" fill="#013a67"/>
  </g>
</svg>
