<svg xmlns="http://www.w3.org/2000/svg" xmlns:xlink="http://www.w3.org/1999/xlink" width="8.486" height="8.486" viewBox="0 0 8.486 8.486">
  <defs>
    <clipPath id="clip-path">
      <path id="Path_72" data-name="Path 72" d="M0-47.5H8.486v8.486H0Z" fill="#ffbb1c"/>
    </clipPath>
  </defs>
  <g id="registered" transform="translate(0 47.5)" clip-path="url(#clip-path)">
    <path id="Path_70" data-name="Path 70" d="M5.27-38.657A3.573,3.573,0,0,1,1.7-42.23,3.573,3.573,0,0,1,5.27-45.8,3.573,3.573,0,0,1,8.843-42.23,3.573,3.573,0,0,1,5.27-38.657m0-7.593a4.02,4.02,0,0,0-4.02,4.02,4.02,4.02,0,0,0,4.02,4.02,4.02,4.02,0,0,0,4.02-4.02,4.02,4.02,0,0,0-4.02-4.02" transform="translate(-1.027 -1.027)" fill="#ffbb1c"/>
    <path id="Path_71" data-name="Path 71" d="M15.76-35.415h.713a.589.589,0,0,0,.644-.616.581.581,0,0,0-.644-.609H15.76Zm-1.039-1.641a.49.49,0,0,1,.533-.54h1.219c1.066,0,1.724.478,1.724,1.565a1.345,1.345,0,0,1-1.281,1.309l1.177,1.26a.449.449,0,0,1,.138.3.53.53,0,0,1-.519.533.535.535,0,0,1-.4-.18l-1.537-1.863H15.76v1.5a.5.5,0,0,1-.519.54.5.5,0,0,1-.519-.54Z" transform="translate(-12.091 -8.134)" fill="#ffbb1c"/>
  </g>
</svg>
