<svg xmlns="http://www.w3.org/2000/svg" width="17.654" height="17.653" viewBox="0 0 17.654 17.653">
  <path id="facebook_2_" data-name="facebook (2)" d="M142.344,128a3.316,3.316,0,0,1,3.31,3.31v11.033a3.316,3.316,0,0,1-3.31,3.31h-2.161v-6.838h2.287l.345-2.666h-2.632v-1.7a1.473,1.473,0,0,1,.27-.965,1.34,1.34,0,0,1,1.052-.322l1.4-.011V130.77a15.405,15.405,0,0,0-2.046-.1,3.414,3.414,0,0,0-2.5.919,3.475,3.475,0,0,0-.937,2.6v1.965h-2.3v2.666h2.3v6.838H131.31a3.316,3.316,0,0,1-3.31-3.31V131.31a3.316,3.316,0,0,1,3.31-3.31Z" transform="translate(-128 -128)" fill="#013a67"/>
</svg>
