<svg xmlns="http://www.w3.org/2000/svg" width="36.04" height="37" viewBox="0 0 36.04 37">
  <path id="air-shaft" d="M23.977,4.979A1.54,1.54,0,0,0,23.758,5H12.5A6.437,6.437,0,0,0,6,11.325v1.707A1.421,1.421,0,0,0,6,13.5v6.339a1.421,1.421,0,0,0,0,.473v1.713a6.437,6.437,0,0,0,6.5,6.325H23.754a1.541,1.541,0,0,0,.486,0H35.5A6.437,6.437,0,0,0,42,22.029V20.322a1.421,1.421,0,0,0,0-.473V13.511a1.421,1.421,0,0,0,0-.473V11.325A6.437,6.437,0,0,0,35.5,5H24.246a1.541,1.541,0,0,0-.269-.021ZM12.5,7.919h10v3.893H9v-.487A3.433,3.433,0,0,1,12.5,7.919Zm13,0h10A3.433,3.433,0,0,1,39,11.325v.487H25.5ZM9,14.731H22.5v3.893H9Zm16.5,0H39v3.893H25.5ZM9,21.543H22.5v3.893h-10A3.433,3.433,0,0,1,9,22.029Zm16.5,0H39v.487a3.433,3.433,0,0,1-3.5,3.406h-10ZM16.479,30.3a1.521,1.521,0,0,0-1.039.428l-4,3.893a1.434,1.434,0,0,0-.415,1.422A1.481,1.481,0,0,0,12.1,37.089a1.528,1.528,0,0,0,1.462-.4l1.44-1.4v3.288a.471.471,0,0,1-.5.487h-7a1.46,1.46,0,1,0,0,2.92h7A3.477,3.477,0,0,0,18,38.572V35.284l1.44,1.4a1.528,1.528,0,0,0,1.462.4,1.481,1.481,0,0,0,1.074-1.046,1.434,1.434,0,0,0-.415-1.422l-4-3.893a1.522,1.522,0,0,0-1.082-.428Zm15,0a1.521,1.521,0,0,0-1.039.428l-4,3.893a1.434,1.434,0,0,0-.415,1.422A1.481,1.481,0,0,0,27.1,37.089a1.528,1.528,0,0,0,1.462-.4l1.44-1.4v3.288a3.477,3.477,0,0,0,3.5,3.406h7a1.46,1.46,0,1,0,0-2.92h-7a.471.471,0,0,1-.5-.487V35.284l1.439,1.4a1.528,1.528,0,0,0,1.462.4,1.481,1.481,0,0,0,1.074-1.046,1.434,1.434,0,0,0-.415-1.422l-4-3.893a1.522,1.522,0,0,0-1.082-.428Z" transform="translate(-5.98 -4.978)" fill="#dcdcdc"/>
</svg>
