<svg xmlns="http://www.w3.org/2000/svg" width="39.535" height="39" viewBox="0 0 39.535 39">
  <g id="Group_301" data-name="Group 301" transform="translate(-7261.233 12247)">
    <path id="temperature-inside" d="M19.69,13.255v9.468a1.848,1.848,0,0,0-.885,1.583,1.771,1.771,0,1,0,3.539,0,1.848,1.848,0,0,0-.885-1.583V20.177h1.769v-1.09H21.459V18h1.769V16.939H21.459V15.785h1.769V14.8H21.459V13.255Z" transform="translate(7268.556 -12238.395)" fill="#ffbb1c"/>
    <g id="recycling-water-greywater-shower" transform="translate(7252.843 -12252)">
      <circle id="Ellipse_22" data-name="Ellipse 22" cx="10.545" cy="10.545" r="10.545" transform="translate(25.834 21.909)" fill="none" stroke="#013a67" stroke-linecap="round" stroke-linejoin="round" stroke-width="2"/>
      <path id="Path_109" data-name="Path 109" d="M23.368,26.739h0a6.989,6.989,0,1,0-13.978,0v1.92H23.368Z" transform="translate(0 -4.715)" fill="none" stroke="#013a67" stroke-linecap="round" stroke-linejoin="round" stroke-width="2"/>
      <path id="Path_110" data-name="Path 110" d="M19,15.087v-.848C19.844,8.474,23.477,6,29,6A10,10,0,0,1,39,16v4.942" transform="translate(-2.621)" fill="none" stroke="#013a67" stroke-linecap="round" stroke-linejoin="round" stroke-width="2"/>
      <line id="Line_158" data-name="Line 158" y2="2.749" transform="translate(16.379 26.73)" fill="none" stroke="#ffbb1c" stroke-linecap="round" stroke-linejoin="round" stroke-width="2"/>
      <line id="Line_160" data-name="Line 160" y2="2.749" transform="translate(10.823 32.487)" fill="none" stroke="#ffbb1c" stroke-linecap="round" stroke-linejoin="round" stroke-width="2"/>
      <line id="Line_161" data-name="Line 161" y2="2.749" transform="translate(16.379 32.487)" fill="none" stroke="#ffbb1c" stroke-linecap="round" stroke-linejoin="round" stroke-width="2"/>
      <line id="Line_162" data-name="Line 162" y2="2.749" transform="translate(21.928 32.487)" fill="none" stroke="#ffbb1c" stroke-linecap="round" stroke-linejoin="round" stroke-width="2"/>
      <line id="Line_163" data-name="Line 163" y2="2.749" transform="translate(10.823 38.069)" fill="none" stroke="#ffbb1c" stroke-linecap="round" stroke-linejoin="round" stroke-width="2"/>
      <line id="Line_164" data-name="Line 164" y2="2.749" transform="translate(16.379 38.069)" fill="none" stroke="#ffbb1c" stroke-linecap="round" stroke-linejoin="round" stroke-width="2"/>
      <line id="Line_165" data-name="Line 165" y2="2.749" transform="translate(21.928 38.069)" fill="none" stroke="#ffbb1c" stroke-linecap="round" stroke-linejoin="round" stroke-width="2"/>
    </g>
  </g>
</svg>
