<svg xmlns="http://www.w3.org/2000/svg" width="44.333" height="38" viewBox="0 0 44.333 38">
  <g id="Oven_Stove_dome" data-name="Oven/Stove/dome" transform="translate(-2 -7)">
    <path id="Path_111" data-name="Path 111" d="M38.417,20.722H9.917a.528.528,0,0,0-.528.528V38.139a.528.528,0,0,0,.528.528h28.5a.528.528,0,0,0,.528-.528V21.25A.528.528,0,0,0,38.417,20.722Zm-.528,16.889H10.444V21.778H37.889ZM45.806,7H2.528A.528.528,0,0,0,2,7.528V44.472A.528.528,0,0,0,2.528,45H45.806a.528.528,0,0,0,.528-.528V7.528A.528.528,0,0,0,45.806,7ZM3.056,8.056H45.278v6.333H3.056Zm0,7.389H6.222v28.5H3.056Zm4.222,28.5v-28.5H41.056v28.5Zm38,0H42.111v-28.5h3.167ZM16.25,13.333H32.083a.528.528,0,0,0,.528-.528V9.639a.528.528,0,0,0-.528-.528H16.25a.528.528,0,0,0-.528.528v3.167A.528.528,0,0,0,16.25,13.333Zm.528-3.167H31.556v2.111H16.778Zm-4.222,3.167a2.111,2.111,0,1,0-2.111-2.111,2.111,2.111,0,0,0,2.111,2.111ZM11.5,11.222a1.054,1.054,0,0,1,.039-.27l1.28,1.28a1.044,1.044,0,0,1-1.319-1.01Zm2.111,0a1.054,1.054,0,0,1-.039.27l-1.286-1.286a1.042,1.042,0,0,1,1.326,1.016Zm-4.222,0a2.111,2.111,0,1,0-2.111,2.111A2.111,2.111,0,0,0,9.389,11.222Zm-1.056,0a1.054,1.054,0,0,1-.039.27L7.008,10.206a1.042,1.042,0,0,1,1.326,1.016Zm-2.111,0a1.054,1.054,0,0,1,.039-.27l1.28,1.28a1.044,1.044,0,0,1-1.319-1.01Zm29.556,2.111a2.111,2.111,0,1,0-2.111-2.111A2.111,2.111,0,0,0,35.778,13.333Zm-1.056-2.111a1.054,1.054,0,0,1,.039-.27l1.28,1.28a1.044,1.044,0,0,1-1.319-1.01Zm2.111,0a1.054,1.054,0,0,1-.039.27l-1.286-1.286a1.042,1.042,0,0,1,1.326,1.016Zm4.222,2.111a2.111,2.111,0,1,0-2.111-2.111A2.111,2.111,0,0,0,41.056,13.333ZM40,11.222a1.054,1.054,0,0,1,.039-.27l1.28,1.28A1.044,1.044,0,0,1,40,11.222Zm2.111,0a1.054,1.054,0,0,1-.039.27l-1.286-1.286a1.042,1.042,0,0,1,1.326,1.016ZM12.028,19.139V17.028a.528.528,0,1,1,1.056,0v.529H35.25v-.529a.528.528,0,1,1,1.056,0v2.111a.528.528,0,1,1-1.056,0v-.527H13.083v.527a.528.528,0,0,1-1.056,0ZM28.917,41.3a.528.528,0,0,1-.528.528H19.945a.528.528,0,1,1,0-1.056h8.443A.528.528,0,0,1,28.917,41.3ZM17.833,35.5H30.5a2.642,2.642,0,0,0,2.639-2.639.528.528,0,0,0-.528-.528H30.5a6.337,6.337,0,0,0-3.7-5.753c0-.019.005-.034.005-.053a2.639,2.639,0,0,0-5.278,0c0,.019,0,.034.005.053a6.337,6.337,0,0,0-3.7,5.753H15.722a.528.528,0,0,0-.528.528A2.642,2.642,0,0,0,17.833,35.5Zm4.786-9.308a1.584,1.584,0,0,1,3.1,0c-.032-.008-.065-.011-.1-.018-.171-.04-.344-.072-.52-.1-.069-.011-.137-.024-.206-.032a5.893,5.893,0,0,0-1.449,0c-.069.008-.137.021-.206.032-.176.026-.349.058-.52.1-.032.008-.065.01-.1.018Zm-.225,1.176c.1-.036.2-.07.3-.1.06-.018.122-.032.184-.047.1-.025.2-.051.3-.07.061-.012.124-.019.186-.028.1-.016.208-.033.312-.043.057-.005.115-.005.173-.009a5.308,5.308,0,0,1,.635,0c.057,0,.116,0,.173.009.1.01.208.027.312.043.062.01.125.017.186.028.1.019.2.045.3.07.061.015.123.03.184.047.1.029.2.064.3.1a5.282,5.282,0,0,1,3.5,4.965H18.889a5.282,5.282,0,0,1,3.505-4.965Zm-4.033,6.02H31.993A1.587,1.587,0,0,1,30.5,34.444H17.833a1.587,1.587,0,0,1-1.493-1.056Z" fill="#dcdcdc"/>
  </g>
</svg>
