<svg xmlns="http://www.w3.org/2000/svg" width="34.63" height="37" viewBox="0 0 34.63 37">
  <g id="row3_1_" transform="translate(-4.1)">
    <path id="light_4_" d="M22.831,14.829V12.372H20v2.457A4.346,4.346,0,0,0,16.616,18.9h9.568A4.292,4.292,0,0,0,22.831,14.829ZM4.1,19.743v.694C4.1,29.571,11.847,37,21.415,37c9.539,0,17.315-7.429,17.315-16.563v-.694H4.1ZM21.415,35.584c-8.5,0-15.436-6.417-15.841-14.424H37.227C36.851,29.166,29.913,35.584,21.415,35.584ZM23.467,0V3.9h-1.3v7.342H20.548V3.9h-1.3V0Z" fill="#dcdcdc"/>
  </g>
</svg>
