<svg id="bar_chart_analytic" data-name="bar chart analytic" xmlns="http://www.w3.org/2000/svg" width="18.867" height="18.867" viewBox="0 0 18.867 18.867">
  <path id="Path_36" data-name="Path 36" d="M18.474,18.081h-.786V5.9H15.329V18.081H13.364V11.4H11.006v6.682H9.04V9.04H6.682v9.04H4.717V13.757H2.358v4.324H.786V.393A.393.393,0,1,0,0,.393V18.474a.393.393,0,0,0,.393.393H18.474a.393.393,0,1,0,0-.786Z" transform="translate(0)" fill="#f26922"/>
  <path id="Path_37" data-name="Path 37" d="M14.4,4.252V2.09a2.358,2.358,0,0,0-1.529,3.687Zm2.716.554H14.959L13.434,6.335a2.358,2.358,0,0,0,3.687-1.529ZM15.191,2.09V4.02h1.93a2.358,2.358,0,0,0-1.93-1.93ZM6.937,4.02h3.538a.393.393,0,0,0,0-.786H6.937a.393.393,0,1,0,0,.786Zm0,1.572H8.9a.393.393,0,1,0,0-.786H6.937a.393.393,0,1,0,0,.786ZM5.144,3.953a.393.393,0,1,0-.162-.487A.393.393,0,0,0,5.144,3.953Zm.22,1.639a.393.393,0,1,0-.279-.114A.393.393,0,0,0,5.364,5.592Z" transform="translate(-3.006 -1.269)" fill="#f26922"/>
</svg>
