<svg xmlns="http://www.w3.org/2000/svg" width="36.288" height="36.341" viewBox="0 0 36.288 36.341">
  <path id="energy" d="M38.306,17.4h-.059c-.941,0-1.911-.029-2.852,0a.906.906,0,0,1-.294-.029A15.058,15.058,0,0,0,32.9,12.02a2.946,2.946,0,0,1,.323-.353L35.16,9.727a18.277,18.277,0,0,0-4.2-4.175C30.279,6.228,29.573,6.9,28.9,7.61a1.616,1.616,0,0,1-.265.206,14.84,14.84,0,0,0-5.351-2.205c0-.059-.029-.118-.029-.206.029-.5,0-1.029,0-1.529h0V2.435h0a18.128,18.128,0,0,0-5.822,0h0c.029.47,0,.97,0,1.441h0V5.4a.436.436,0,0,1-.029.206A14.84,14.84,0,0,0,12.05,7.816a.811.811,0,0,1-.265-.206c-.676-.706-1.352-1.382-2.029-2.058a18.277,18.277,0,0,0-4.2,4.175l1.941,1.941a2.946,2.946,0,0,1,.323.353,14.627,14.627,0,0,0-2.205,5.351.906.906,0,0,1-.294.029c-.941-.029-1.911,0-2.852,0H2.435A19.9,19.9,0,0,0,2.2,20.37a19.2,19.2,0,0,0,.235,2.94h3.2A14.506,14.506,0,0,0,7.9,28.721c-.029.059-.088.088-.147.147-.647.617-1.294,1.264-1.941,1.911l-.206.206A18.027,18.027,0,0,0,9.786,35.13l.059-.059c.676-.706,1.382-1.382,2.058-2.088a.516.516,0,0,1,.147-.118,15.2,15.2,0,0,0,5.381,2.205.653.653,0,0,1,.029.265c-.029.97,0,1.941,0,2.911v.059a18.736,18.736,0,0,0,2.881.235,18.438,18.438,0,0,0,2.881-.235v-.059c0-.97,0-1.941-.029-2.911a.814.814,0,0,1,.029-.265A14.767,14.767,0,0,0,28.6,32.866c.059.029.088.088.147.118.676.706,1.382,1.382,2.058,2.088l.059.059a18.618,18.618,0,0,0,4.175-4.146l-.206-.206c-.647-.647-1.264-1.294-1.941-1.911-.059-.059-.088-.118-.147-.147a15.226,15.226,0,0,0,2.264-5.41h3.2a19.505,19.505,0,0,0,.235-2.94A12.51,12.51,0,0,0,38.306,17.4ZM24.957,20.811a.855.855,0,0,1-.5.412c-.147.029-2.382.617-3.822.97l-.382.088,1.882,5.087.029.059a.918.918,0,0,1-1.558.97L15.813,20.87a.974.974,0,0,1-.029-.941.828.828,0,0,1,.588-.441c.088-.029,2.323-.5,3.763-.823l.412-.088-1.941-5.2-.029-.059a.909.909,0,0,1,.294-1.264.991.991,0,0,1,.5-.147.887.887,0,0,1,.764.412l4.793,7.556a.991.991,0,0,1,.147.5A1.232,1.232,0,0,1,24.957,20.811Z" transform="translate(-2.2 -2.2)" fill="#1c1c1c"/>
</svg>
