<svg xmlns="http://www.w3.org/2000/svg" width="33.284" height="32.977" viewBox="0 0 33.284 32.977">
  <path id="home_1_" data-name="home (1)" d="M37.956,16.918l-1.933-1.576V10.137a1.388,1.388,0,1,0-2.766,0v2.905L28.25,8.987a6.94,6.94,0,0,0-8.785,0L9.758,16.918A6.861,6.861,0,0,0,7.22,22.253v11.2a6.94,6.94,0,0,0,6.94,6.94h19.4a6.94,6.94,0,0,0,6.94-6.94V22.213A6.861,6.861,0,0,0,37.956,16.918ZM19.7,37.571v-9.6a4.164,4.164,0,0,1,8.319,0v9.6Zm18.035-4.154a4.164,4.164,0,0,1-4.154,4.154H30.8v-9.6a6.94,6.94,0,1,0-13.881,0v9.6H14.141a4.164,4.164,0,0,1-4.164-4.154v-11.2A4.154,4.154,0,0,1,11.5,18.991l9.707-7.932a4.174,4.174,0,0,1,5.255,0l9.707,7.932a4.154,4.154,0,0,1,1.567,3.222Z" transform="translate(-7.22 -7.42)" fill="#1c1c1c"/>
</svg>
