<svg xmlns="http://www.w3.org/2000/svg" width="12" height="10" viewBox="0 0 12 10">
  <g id="Polygon_3" data-name="Polygon 3" transform="translate(12 10) rotate(180)" fill="#d4d4d4">
    <path d="M 10.23380947113037 9.499998092651367 L 1.766189575195312 9.499998092651367 C 1.503109574317932 9.499998092651367 1.374269485473633 9.32260799407959 1.331089496612549 9.246347427368164 C 1.287909507751465 9.170077323913574 1.202089548110962 8.968347549438477 1.33743953704834 8.742757797241211 L 5.571259498596191 1.686407804489136 C 5.702709674835205 1.467307806015015 5.914879322052002 1.443657755851746 5.999999523162842 1.443657755851746 C 6.085119724273682 1.443657755851746 6.297289371490479 1.467307806015015 6.428739547729492 1.686407804489136 L 10.66254997253418 8.742757797241211 C 10.7979097366333 8.968347549438477 10.71208953857422 9.170077323913574 10.66890907287598 9.246347427368164 C 10.62572956085205 9.32260799407959 10.49688911437988 9.499998092651367 10.23380947113037 9.499998092651367 Z" stroke="none"/>
    <path d="M 5.999844551086426 1.943916320800781 L 1.766189575195312 8.999998092651367 L 10.23380947113037 9.000007629394531 L 5.999844551086426 1.943916320800781 M 5.999999523162842 0.9436531066894531 C 6.331644535064697 0.9436531066894531 6.663289546966553 1.105487823486328 6.857489585876465 1.429158210754395 L 11.09129905700684 8.485507965087891 C 11.49121952056885 9.15202808380127 11.01109981536865 9.999998092651367 10.23380947113037 9.999998092651367 L 1.766189575195312 9.999998092651367 C 0.9888992309570312 9.999998092651367 0.5087795257568359 9.15202808380127 0.9086999893188477 8.485507965087891 L 5.142509460449219 1.429158210754395 C 5.336709499359131 1.105487823486328 5.668354511260986 0.9436531066894531 5.999999523162842 0.9436531066894531 Z" stroke="none" fill="#d4d4d4"/>
  </g>
</svg>
